<svg data-v-423bf9ae="" xmlns="http://www.w3.org/2000/svg" viewBox="0 0 584 91" class="iconLeftSlogan"><!----><!----><!----><g data-v-423bf9ae="" id="59ba9896-da60-4a19-9074-cd8f47f0b4b2" fill="#43AC5A" transform="matrix(4.5558086296446,0,0,4.5558086296446,105.26087995053874,-22.323463196571467)"><path d="M8.37 13.79C8.26 13.90 8.12 13.93 8.02 13.93C7.76 13.92 7.53 13.65 7.27 13.02L6.65 11.59C6.34 11.00 5.99 10.54 5.29 10.35C6.64 10.00 7.49 9.03 7.49 7.66C7.49 5.81 6.09 5.08 3.43 5.08C2.21 5.08 1.47 5.24 0.98 5.47C1.19 6.02 1.23 6.79 1.23 7.18L1.23 14.35C1.23 14.88 1.64 15.22 2.18 15.22C2.65 15.22 3.00 14.98 3.14 14.84C2.93 14.34 2.90 13.62 2.90 13.23L2.90 10.71L3.54 10.71C4.59 10.72 4.84 11.37 5.12 12.07L5.61 13.34C6.08 14.50 6.40 15.20 7.45 15.20C7.84 15.20 8.48 14.92 8.48 14.27C8.48 14.13 8.46 13.97 8.37 13.79ZM2.90 10.09L2.90 5.71C3.07 5.68 3.28 5.68 3.56 5.68C5.10 5.68 5.68 6.51 5.68 7.77C5.68 9.09 4.94 10.07 3.63 10.11C3.36 10.11 3.12 10.11 2.90 10.09ZM14.97 13.06C14.66 13.72 13.94 14.17 12.92 14.17C11.73 14.17 10.92 13.57 10.79 11.79C11.28 11.84 11.75 11.86 12.21 11.86C14.06 11.86 15.27 11.12 15.27 9.73C15.27 8.34 14.07 7.64 12.50 7.64C10.23 7.64 9.02 9.09 9.02 11.42C9.02 13.86 10.36 15.22 12.47 15.22C13.75 15.22 14.73 14.73 15.08 13.83C15.29 13.34 15.15 13.15 14.97 13.06ZM12.45 8.23C12.98 8.23 13.51 8.48 13.51 9.46C13.51 11.03 12.32 11.24 11.33 11.23C11.13 11.23 10.93 11.21 10.77 11.20C10.77 9.32 11.40 8.23 12.45 8.23ZM23.37 13.72C23.27 13.87 23.07 13.93 22.96 13.93C22.64 13.93 22.48 13.69 22.48 13.19L22.48 10.67C22.48 8.53 21.56 7.64 19.53 7.64C17.77 7.64 16.63 8.23 16.63 9.35C16.63 10.05 17.12 10.63 17.93 10.63C18.27 10.63 18.63 10.53 18.83 10.32C18.42 10.11 18.30 9.67 18.30 9.30C18.30 8.50 18.83 8.22 19.42 8.22C20.45 8.22 20.80 9.02 20.80 10.57L20.80 10.92C20.22 10.92 19.47 10.98 18.72 11.19C17.49 11.54 16.31 12.25 16.31 13.52C16.31 14.57 17.05 15.16 18.12 15.16C19.40 15.16 20.38 14.36 20.90 13.22C20.96 14.64 21.46 15.16 22.33 15.16C23.06 15.16 23.53 14.76 23.53 14.25C23.53 14.10 23.49 13.89 23.37 13.72ZM18.96 14.08C18.34 14.14 18.10 13.65 18.10 13.13C18.10 12.52 18.49 12.04 19.07 11.77C19.56 11.54 20.27 11.47 20.85 11.48C20.85 12.89 19.80 14.03 18.96 14.08ZM27.61 15.22C28.92 15.22 29.92 14.64 30.20 13.65C30.34 13.15 30.23 12.92 30.03 12.84C29.82 13.65 29.08 14.17 28.08 14.17C26.77 14.17 25.91 13.31 25.91 11.17C25.91 9.28 26.54 8.23 27.52 8.23C28.11 8.23 28.55 8.51 28.55 9.28C28.55 9.76 28.42 10.09 28.13 10.30C28.32 10.51 28.67 10.61 29.01 10.61C29.69 10.61 30.18 10.15 30.18 9.42C30.18 8.44 29.36 7.64 27.66 7.64C25.41 7.64 24.16 9.09 24.16 11.42C24.16 13.86 25.41 15.22 27.61 15.22ZM33.78 7.84L33.60 7.84C33.63 7.27 33.70 6.80 33.82 6.33C33.68 6.20 33.38 5.96 32.90 5.96C32.35 5.96 31.95 6.29 31.95 6.82L31.95 7.84L31.36 7.84C31.12 7.84 30.93 7.97 30.91 8.25L30.90 8.65C31.08 8.62 31.56 8.60 31.74 8.60L31.95 8.60L31.95 13.33C31.95 14.46 32.54 15.16 33.59 15.16C34.44 15.16 35 14.80 35 14.27C35 14.11 34.94 13.90 34.82 13.72C34.73 13.87 34.44 13.94 34.23 13.94C33.80 13.94 33.59 13.68 33.59 13.19L33.59 9.06L33.59 8.60L34.87 8.60C35.10 8.60 35.28 8.46 35.29 8.19L35.31 7.78C35.17 7.81 33.92 7.84 33.78 7.84ZM37.52 6.85C38.05 6.85 38.49 6.41 38.49 5.88C38.49 5.33 38.05 4.90 37.52 4.90C36.97 4.90 36.54 5.33 36.54 5.88C36.54 6.41 36.97 6.85 37.52 6.85ZM38.40 13.13L38.37 8.48C38.37 7.94 38.00 7.63 37.45 7.63C37.00 7.63 36.68 7.87 36.53 7.99C36.74 8.54 36.78 9.17 36.78 9.70L36.78 14.35C36.78 14.88 37.18 15.22 37.70 15.22C38.16 15.22 38.49 14.98 38.64 14.84C38.43 14.29 38.40 13.68 38.40 13.13ZM45.37 7.69C44.98 7.69 44.76 7.76 44.53 7.85C44.60 7.95 44.63 8.08 44.63 8.27C44.63 8.47 44.59 8.65 44.56 8.85L43.11 14.20L41.45 8.33C41.36 7.90 40.99 7.69 40.49 7.69C39.98 7.69 39.70 7.88 39.55 8.06C39.76 8.27 39.89 8.67 39.96 8.88L41.94 14.66C42.08 15.08 42.43 15.22 42.83 15.22C43.19 15.22 43.55 15.13 43.93 14.97L46.10 9.25C46.23 8.95 46.27 8.61 46.27 8.39C46.28 7.90 46.00 7.69 45.37 7.69ZM52.96 13.06C52.65 13.72 51.94 14.17 50.92 14.17C49.73 14.17 48.92 13.57 48.79 11.79C49.28 11.84 49.74 11.86 50.20 11.86C52.05 11.86 53.27 11.12 53.27 9.73C53.27 8.34 52.07 7.64 50.50 7.64C48.23 7.64 47.01 9.09 47.01 11.42C47.01 13.86 48.36 15.22 50.47 15.22C51.74 15.22 52.72 14.73 53.07 13.83C53.28 13.34 53.14 13.15 52.96 13.06ZM50.44 8.23C50.97 8.23 51.51 8.48 51.51 9.46C51.51 11.03 50.32 11.24 49.32 11.23C49.13 11.23 48.93 11.21 48.76 11.20C48.76 9.32 49.39 8.23 50.44 8.23ZM65.16 13.79C65.04 13.90 64.90 13.93 64.81 13.93C64.54 13.92 64.32 13.65 64.05 13.02L63.43 11.59C63.13 11.00 62.78 10.54 62.08 10.35C63.42 10.00 64.27 9.03 64.27 7.66C64.27 5.81 62.87 5.08 60.21 5.08C59.00 5.08 58.25 5.24 57.76 5.47C57.97 6.02 58.02 6.79 58.02 7.18L58.02 14.35C58.02 14.88 58.42 15.22 58.97 15.22C59.43 15.22 59.78 14.98 59.92 14.84C59.71 14.34 59.68 13.62 59.68 13.23L59.68 10.71L60.33 10.71C61.38 10.72 61.63 11.37 61.91 12.07L62.40 13.34C62.86 14.50 63.18 15.20 64.23 15.20C64.62 15.20 65.27 14.92 65.27 14.27C65.27 14.13 65.24 13.97 65.16 13.79ZM59.68 10.09L59.68 5.71C59.85 5.68 60.06 5.68 60.34 5.68C61.88 5.68 62.47 6.51 62.47 7.77C62.47 9.09 61.73 10.07 60.41 10.11C60.14 10.11 59.91 10.11 59.68 10.09ZM71.75 13.06C71.44 13.72 70.73 14.17 69.71 14.17C68.52 14.17 67.70 13.57 67.58 11.79C68.07 11.84 68.53 11.86 68.99 11.86C70.84 11.86 72.06 11.12 72.06 9.73C72.06 8.34 70.85 7.64 69.29 7.64C67.02 7.64 65.80 9.09 65.80 11.42C65.80 13.86 67.14 15.22 69.26 15.22C70.53 15.22 71.51 14.73 71.86 13.83C72.07 13.34 71.93 13.15 71.75 13.06ZM69.23 8.23C69.76 8.23 70.29 8.48 70.29 9.46C70.29 11.03 69.10 11.24 68.11 11.23C67.91 11.23 67.72 11.21 67.55 11.20C67.55 9.32 68.18 8.23 69.23 8.23ZM76.54 15.22C77.85 15.22 78.85 14.64 79.13 13.65C79.27 13.15 79.16 12.92 78.96 12.84C78.75 13.65 78.01 14.17 77.01 14.17C75.70 14.17 74.84 13.31 74.84 11.17C74.84 9.28 75.47 8.23 76.45 8.23C77.04 8.23 77.48 8.51 77.48 9.28C77.48 9.76 77.35 10.09 77.06 10.30C77.25 10.51 77.60 10.61 77.94 10.61C78.62 10.61 79.11 10.15 79.11 9.42C79.11 8.44 78.29 7.64 76.59 7.64C74.34 7.64 73.09 9.09 73.09 11.42C73.09 13.86 74.34 15.22 76.54 15.22ZM81.56 6.85C82.10 6.85 82.53 6.41 82.53 5.88C82.53 5.33 82.10 4.90 81.56 4.90C81.02 4.90 80.58 5.33 80.58 5.88C80.58 6.41 81.02 6.85 81.56 6.85ZM82.45 13.13L82.42 8.48C82.42 7.94 82.04 7.63 81.49 7.63C81.05 7.63 80.72 7.87 80.57 7.99C80.78 8.54 80.82 9.17 80.82 9.70L80.82 14.35C80.82 14.88 81.23 15.22 81.75 15.22C82.21 15.22 82.53 14.98 82.68 14.84C82.47 14.29 82.45 13.68 82.45 13.13ZM88.54 7.64C87.37 7.64 86.58 8.30 86.16 9.52C86.07 8.39 85.64 7.70 84.78 7.70C84.17 7.70 83.73 8.05 83.73 8.55C83.73 8.71 83.79 8.92 83.90 9.10C84 8.96 84.17 8.93 84.28 8.93C84.53 8.93 84.64 9.14 84.64 9.65L84.63 17.23C84.63 17.77 85.05 18.07 85.58 18.07C86.04 18.07 86.38 17.85 86.52 17.72C86.30 16.94 86.25 15.88 86.25 15.26L86.25 14.29C86.53 14.90 87.15 15.22 88.02 15.22C89.87 15.22 91.01 13.78 91.01 11.14C91.01 9.37 90.45 7.64 88.54 7.64ZM87.61 14.35C86.59 14.35 86.28 13.51 86.28 12.11C86.28 10.35 86.86 8.54 88.06 8.54C89.07 8.54 89.28 9.67 89.28 11.13C89.28 13.20 88.76 14.35 87.61 14.35ZM98.03 13.06C97.72 13.72 97.01 14.17 95.98 14.17C94.79 14.17 93.98 13.57 93.86 11.79C94.35 11.84 94.81 11.86 95.27 11.86C97.12 11.86 98.34 11.12 98.34 9.73C98.34 8.34 97.13 7.64 95.56 7.64C93.30 7.64 92.08 9.09 92.08 11.42C92.08 13.86 93.42 15.22 95.54 15.22C96.81 15.22 97.79 14.73 98.14 13.83C98.35 13.34 98.21 13.15 98.03 13.06ZM95.51 8.23C96.04 8.23 96.57 8.48 96.57 9.46C96.57 11.03 95.38 11.24 94.39 11.23C94.19 11.23 94.00 11.21 93.83 11.20C93.83 9.32 94.46 8.23 95.51 8.23ZM101.95 15.22C104.29 15.22 105.08 14.10 105.08 13.03C105.08 11.75 103.84 11.20 102.75 10.68C101.84 10.23 101.01 9.87 101.01 9.06C101.01 8.47 101.57 8.23 102.19 8.23C102.87 8.23 103.32 8.54 103.45 9.03C103.54 9.24 103.56 9.53 103.53 9.77C103.68 9.80 103.81 9.81 103.99 9.80C104.57 9.77 104.78 9.39 104.78 9.00C104.78 8.09 103.75 7.63 102.24 7.63C100.80 7.63 99.54 8.19 99.54 9.60C99.54 11.09 100.73 11.62 101.81 12.14C102.70 12.56 103.56 12.87 103.56 13.65C103.56 14.29 102.96 14.59 102.16 14.59C101.14 14.59 100.62 14.01 100.53 13.36C100.48 13.12 100.48 12.89 100.53 12.66C99.58 12.50 99.29 13.08 99.29 13.57C99.29 14.50 100.13 15.22 101.95 15.22Z"></path></g><!----><g data-v-423bf9ae="" id="066ccf26-1bcc-4b3c-afba-7131fbec8bc7" transform="matrix(1.0033121744791667,0,0,1.0033121744791667,-4.880285227438435,-4.314653119863941)" stroke="none" fill="#43AC5A"><path d="M40.826 37.073c-1.126.295-2.724 1.064-3.799 1.828-1.884 1.336-4.072 4.209-4.257 5.588-.076.515-.036.674.399.892.691.359 2.168 1.978 2.772 3.039 2.367 4.152 2.535 8.208.547 13.15-.363.901-.707 1.565-.83 1.688-.467.484-.282.927.475 1.931 1.889 2.51 4.236 4.378 6.123 4.875.456.125.966.187 1.516.187 1.258 0 2.721-.322 4.208-.942 1.622-.667 2.225-.653 4.039.097 1.422.591 1.509.608 3.087.608 1.443-.014 1.734-.06 2.598-.414 1.992-.828 3.801-2.276 5.094-4.08.709-1.001.816-1.278.333-1.937-.497-.704-1.481-2.925-1.728-3.895-.175-.716-.232-1.483-.232-3.158.014-1.958.038-2.313.369-3.431.886-2.956 2.727-5.81 4.579-7.1.796-.525.795-.928.452-2.288-.413-1.621-1.147-2.872-2.457-4.181-2.021-2.021-4.083-2.808-7.357-2.808-2.244 0-3.531.378-5.101 1.5l-.273.192.266-.77c1.149-3.272 3.501-6.311 5.991-7.741.56-.328.81-.535.81-.894 0-.325-.187-.43-.298-.463-.902-.271-4.025 2.323-5.561 4.632-1.045 1.595-1.5 2.539-2.211 4.589l-.522 1.493-.178-.164c-.533-.505-2.258-2.848-3.129-4.249-1.411-2.283-2.44-4.732-2.897-6.897-.216-1.024-.257-3.487-.148-3.913.476.102 2.782 2.071 3.642 3.333 1.597 2.334 1.919 4.867 2.024 7.036.016.323.02.602.023.84.011.759.017 1.178.422 1.284a.355.355 0 0 0 .305-.043c.142-.096.304-.328.431-1.316.136-1.005-.053-2.853-.449-4.393-.565-2.205-1.42-3.783-2.856-5.275-1.288-1.358-2.396-2.258-3.203-2.604l-.002-.001c-.615-.251-.921-.295-1.224.079-.186.203-.233.743-.233 2.629 0 1.94.048 2.465.325 3.513.724 2.632 2.072 5.4 3.897 8.006.212.304.366.537.471.702a7.904 7.904 0 0 1-.252-.13c-1.538-.777-4.285-1.061-6.001-.624zm14.277 31.792c-1.245 0-1.372-.027-2.721-.586-1.26-.524-1.655-.623-2.485-.623-.553-.015-1.2.074-1.587.219-2.441.979-3.008 1.128-4.334 1.143-1.224 0-1.332-.023-2.292-.497-.589-.309-1.396-.813-1.796-1.124-.941-.744-2.966-3.055-3.059-3.417-.029-.126.059-.5.279-.94C38.24 60.82 39 57.711 39 55.303c-.014-2.676-.379-4.251-1.502-6.484-.819-1.65-1.661-2.813-2.729-3.768l-.771-.684.537-.949c1.106-1.924 3.064-3.732 4.989-4.606 1.435-.656 2.435-.859 3.832-.778 1.813.109 3.231.67 5.06 2 1.451 1.06 1.869 1.031 3.191-.22.979-.912 1.636-1.28 3.053-1.716 1.209-.361 3.854-.252 5.342.222 2.686.858 4.844 3.167 5.499 5.881.146.583.146.583-.087.725-1.254.784-3.334 3.591-4.281 5.776-.905 2.075-1.11 3.176-1.096 5.895.014 2.987.224 3.928 1.404 6.289l.74 1.492-.341.511c-.977 1.451-2.74 2.841-4.601 3.626-.716.298-1.035.35-2.136.35zm-4.171-18.951a.424.424 0 0 0-.334.215c-.105.177-.132 2.717-.132 2.743-.028 2.806.084 3.423.748 4.132.27.293.586.44.92.44.316 0 .647-.133.967-.398.59-.487.807-1.227.749-2.555-.072-1.303-.534-2.321-1.647-3.631-.575-.677-.974-.956-1.271-.946zm1.242 6.371c-.03-.003-.103-.069-.276-.363-.208-.342-.256-.596-.256-2.311l.011-1.521.017.021c.146.17.429.605.634 1.013.476.91.485 2.555.134 2.94-.182.194-.233.229-.264.221zM92.442 35.77c.903 2.153 1.775 6.284 2.123 10.046.293 3.223.148 7.73-.362 11.217-1.13 7.928-2.436 12.131-5.174 16.657-2.794 4.586-8.278 10.563-12.226 13.325-.375.264-.931.653-1.25.875-1.557 1.108-6.777 3.767-9.007 4.588-3.062 1.145-6.207 1.938-9.616 2.425-1.155.161-3.573.245-5.925.245-1.928 0-3.812-.057-4.919-.175-2.527-.279-6.072-.969-7.74-1.506-4.588-1.482-9.489-3.786-12.486-5.868-2.393-1.67-5.989-4.625-7.261-5.965a6.016 6.016 0 0 0-.598-.55l.017.056c.17.577 2.017 4.109 2.942 5.562.624.997.787 1.417.648 1.667-.069.125-.208.188-.414.188-.325 0-.891-.434-2.619-3.649-2.672-4.972-2.206-5.527-2.052-5.71.321-.394.849-.285 3.171.397 2.209.656 5.009 1.3 5.653 1.3.225 0 .524.072.662.211a.727.727 0 0 1 .189.643.465.465 0 0 1-.266.352c-.379.144-3.228-.471-5.111-.98a38.368 38.368 0 0 0-1.458-.365c.655.686 2.784 2.569 4.645 4.005 3.676 2.85 6.559 4.454 11.423 6.355 4.926 1.912 8.766 2.644 14.674 2.795 5.388.127 9.132-.376 13.829-1.854 2.805-.87 4.913-1.786 8.058-3.503 2.349-1.279 3.798-2.247 5.742-3.832 4.601-3.764 9.1-9.214 11.463-13.885 1.759-3.463 2.677-6.811 3.778-13.777.362-2.352.387-2.8.387-6.853 0-4.769-.1-5.984-.761-9.292-.415-2.1-.925-3.852-1.476-5.065-.262-.594-.348-.859-.146-1.103.161-.196.333-.285.509-.257.313.045.589.416.954 1.28zM48.651 49.947h-.003c-.286-.037-.581.185-1.202.913-1.114 1.311-1.575 2.329-1.647 3.633-.059 1.327.159 2.067.747 2.552.296.252.625.383.951.383.115 0 .23-.017.344-.05.511-.149.922-.621 1.127-1.292.247-.8.326-2.485.201-4.291-.1-1.584-.113-1.788-.518-1.848zm-.785 5.786c-.172.416-.296.497-.354.508-.078.016-.185-.074-.262-.154-.218-.219-.261-.343-.261-1.268.014-1.085.205-1.63.932-2.652l.029-.041.031 1.417c.028 1.243-.04 2.007-.115 2.19zm-42.323-.018c-.308-2.115-.35-8.786-.07-11.153.239-2.034.806-5.256 1.212-6.895 1.973-7.796 7.794-16.502 15.19-22.722a38.89 38.89 0 0 1 1.689-1.34c.322-.225.974-.682 1.459-1.029 3.671-2.605 7.11-4.34 11.5-5.799 3.623-1.207 6.902-1.743 11.697-1.91 1.155-.042 1.821-.017 5.085.194 5.397.336 10.25 1.757 16.228 4.752 1.85.918 2.656 1.455 6.634 4.418 1.783 1.33 3.297 2.601 4.502 3.777.75.74 1.2 1.143 1.443 1.339a32.606 32.606 0 0 0-.496-1.559c-.503-1.424-.997-2.447-2.113-4.377-.208-.356-.257-.701-.131-.92a.452.452 0 0 1 .414-.222c.745 0 2.285 3.229 3.018 5.451.733 2.171.932 3.378.642 3.911-.104.193-.226.304-.382.347-.232.064-.524-.028-1.007-.318-1.194-.7-5.929-2.341-7.561-2.62-.065-.013-.601-.127-.698-.388-.08-.213-.062-.429.05-.591a.569.569 0 0 1 .479-.236c.622 0 2.595.559 4.691 1.329.865.315 1.468.521 1.81.629-.725-.785-3.313-3.063-5.396-4.619-4.024-2.983-5.068-3.649-7.447-4.749-5.939-2.763-9.51-3.736-15.284-4.168-2.531-.195-3.474-.207-5.605-.069-5.134.3-8.141.922-12.375 2.56-2.969 1.151-5.028 2.212-7.598 3.916-3.373 2.221-4.633 3.249-7.492 6.107-4.312 4.326-6.722 7.613-9.21 12.561-1.472 2.917-2.333 5.417-2.974 8.63C6.26 45.999 6.172 52.477 7.2 58.195c.328 1.886 1.271 5.134 1.977 6.816.453 1.063.586 1.481.434 1.712-.097.146-.277.163-.405.163-.524 0-.831-.553-1.432-2.11-1.096-2.779-1.596-4.811-2.231-9.061z"></path></g><!----><g data-v-423bf9ae="" id="22725aec-fcda-43a9-b8d6-df3c1599533a" fill="#43AC5A" transform="matrix(0.6587397087319455,0,0,0.6587397087319455,108.53323832353246,56.884162099728655)"><path d="M10.93 7.46L10.93 7.46L10.93 7.46Q10.93 8.13 10.63 8.73L10.63 8.73L10.63 8.73Q10.33 9.32 9.80 9.79L9.80 9.79L9.80 9.79Q9.27 10.26 8.55 10.58L8.55 10.58L8.55 10.58Q7.84 10.91 7 11.02L7 11.02L7 11.02Q7.21 11.65 7.51 12.31L7.51 12.31L7.51 12.31Q7.81 12.98 8.16 13.59L8.16 13.59L8.16 13.59Q8.51 14.21 8.89 14.73L8.89 14.73L8.89 14.73Q9.27 15.25 9.63 15.58L9.63 15.58L9.63 15.58Q9.56 15.72 9.43 15.86L9.43 15.86L9.43 15.86Q9.30 16.00 9.12 16.12L9.12 16.12L9.12 16.12Q8.95 16.24 8.76 16.32L8.76 16.32L8.76 16.32Q8.57 16.39 8.40 16.39L8.40 16.39L8.40 16.39Q8.09 16.39 7.81 16.10L7.81 16.10L7.81 16.10Q7.53 15.81 7.25 15.17L7.25 15.17L7.25 15.17Q6.96 14.53 6.64 13.52L6.64 13.52L6.64 13.52Q6.33 12.50 5.95 11.07L5.95 11.07L5.95 11.07Q5.80 11.07 5.64 11.07L5.64 11.07L5.64 11.07Q5.49 11.07 5.40 11.05L5.40 11.05L5.40 11.05Q5.31 10.99 5.19 10.85L5.19 10.85L5.19 10.85Q4.82 11.66 4.52 12.38L4.52 12.38L4.52 12.38Q4.23 13.09 4.00 13.76L4.00 13.76L4.00 13.76Q3.77 14.42 3.59 15.04L3.59 15.04L3.59 15.04Q3.42 15.67 3.29 16.31L3.29 16.31L3.29 16.31Q2.81 16.20 2.46 15.90L2.46 15.90L2.46 15.90Q2.11 15.61 1.81 15.08L1.81 15.08L1.81 15.08Q1.86 14.95 1.93 14.83L1.93 14.83L1.93 14.83Q1.99 14.71 2.09 14.50L2.09 14.50L2.09 14.50Q2.18 14.28 2.33 13.94L2.33 13.94L2.33 13.94Q2.48 13.61 2.72 13.05L2.72 13.05L2.72 13.05Q2.97 12.49 3.31 11.68L3.31 11.68L3.31 11.68Q3.65 10.86 4.14 9.70L4.14 9.70L4.14 9.70Q4.37 9.18 4.53 8.79L4.53 8.79L4.53 8.79Q4.69 8.40 4.82 8.04L4.82 8.04L4.82 8.04Q4.94 7.69 5.05 7.33L5.05 7.33L5.05 7.33Q5.15 6.97 5.26 6.51L5.26 6.51L5.26 6.51Q4.62 6.73 4.07 7.01L4.07 7.01L4.07 7.01Q3.51 7.28 3.15 7.59L3.15 7.59L3.15 7.59Q3.02 7.50 2.89 7.34L2.89 7.34L2.89 7.34Q2.76 7.17 2.65 6.96L2.65 6.96L2.65 6.96Q2.53 6.76 2.45 6.55L2.45 6.55L2.45 6.55Q2.37 6.34 2.35 6.17L2.35 6.17L2.35 6.17Q2.77 5.89 3.38 5.66L3.38 5.66L3.38 5.66Q3.99 5.42 4.68 5.24L4.68 5.24L4.68 5.24Q5.36 5.07 6.08 4.97L6.08 4.97L6.08 4.97Q6.79 4.87 7.41 4.87L7.41 4.87L7.41 4.87Q9.09 4.87 10.01 5.56L10.01 5.56L10.01 5.56Q10.93 6.26 10.93 7.46ZM7.35 6.02L7.52 6.29L7.52 6.29Q7.42 6.41 7.21 6.79L7.21 6.79L7.21 6.79Q7 7.17 6.73 7.69L6.73 7.69L6.73 7.69Q6.45 8.22 6.15 8.83L6.15 8.83L6.15 8.83Q5.85 9.45 5.57 10.05L5.57 10.05L5.57 10.05Q6.62 10.05 7.50 9.86L7.50 9.86L7.50 9.86Q8.39 9.66 9.03 9.30L9.03 9.30L9.03 9.30Q9.67 8.95 10.03 8.46L10.03 8.46L10.03 8.46Q10.39 7.98 10.39 7.39L10.39 7.39L10.39 7.39Q10.39 6.69 9.88 6.32L9.88 6.32L9.88 6.32Q9.38 5.95 8.33 5.95L8.33 5.95L8.33 5.95Q8.09 5.95 7.85 5.97L7.85 5.97L7.85 5.97Q7.62 5.99 7.35 6.02L7.35 6.02ZM23.76 9.21L23.76 9.21L23.76 9.21Q24.22 9.21 24.48 9.46L24.48 9.46L24.48 9.46Q24.74 9.72 24.74 10.16L24.74 10.16L24.74 10.16Q24.74 10.28 24.72 10.39L24.72 10.39L24.72 10.39Q24.70 10.51 24.67 10.60L24.67 10.60L24.67 10.60Q24.49 10.57 24.26 10.55L24.26 10.55L24.26 10.55Q24.04 10.53 23.73 10.53L23.73 10.53L23.73 10.53Q23.13 10.53 22.51 10.63L22.51 10.63L22.51 10.63Q21.90 10.74 21.34 10.81L21.34 10.81L21.34 10.81Q21.01 11.55 20.75 12.24L20.75 12.24L20.75 12.24Q20.48 12.94 20.29 13.51L20.29 13.51L20.29 13.51Q20.10 14.08 20.00 14.50L20.00 14.50L20.00 14.50Q19.89 14.92 19.88 15.13L19.88 15.13L19.88 15.13Q21.01 14.90 22.17 14.73L22.17 14.73L22.17 14.73Q23.32 14.56 24.60 14.48L24.60 14.48L24.60 14.48Q24.75 14.71 24.86 14.99L24.86 14.99L24.86 14.99Q24.96 15.27 24.96 15.60L24.96 15.60L24.96 15.60Q24.96 15.68 24.96 15.78L24.96 15.78L24.96 15.78Q24.96 15.88 24.93 15.97L24.93 15.97L24.93 15.97Q24.54 15.96 24.11 15.95L24.11 15.95L24.11 15.95Q23.67 15.95 22.97 15.95L22.97 15.95L22.97 15.95Q22.51 15.95 22.10 15.97L22.10 15.97L22.10 15.97Q21.69 15.99 21.27 16.03L21.27 16.03L21.27 16.03Q20.85 16.07 20.38 16.14L20.38 16.14L20.38 16.14Q19.91 16.21 19.32 16.31L19.32 16.31L19.32 16.31Q18.68 16.06 18.07 15.08L18.07 15.08L18.07 15.08Q18.31 14.57 18.74 13.54L18.74 13.54L18.74 13.54Q19.17 12.52 19.82 10.79L19.82 10.79L19.82 10.79Q19.19 10.60 19.00 10.09L19.00 10.09L19.00 10.09Q19.07 10.02 19.40 9.92L19.40 9.92L19.40 9.92Q19.74 9.81 20.23 9.70L20.23 9.70L20.23 9.70Q20.44 9.16 20.59 8.75L20.59 8.75L20.59 8.75Q20.73 8.34 20.85 7.99L20.85 7.99L20.85 7.99Q20.96 7.63 21.05 7.29L21.05 7.29L21.05 7.29Q21.14 6.94 21.22 6.54L21.22 6.54L21.22 6.54Q20.73 6.51 20.45 6.27L20.45 6.27L20.45 6.27Q20.17 6.02 20.17 5.63L20.17 5.63L20.17 5.63Q20.17 5.52 20.21 5.36L20.21 5.36L20.21 5.36Q20.24 5.21 20.29 5.10L20.29 5.10L20.29 5.10Q20.57 5.14 20.82 5.15L20.82 5.15L20.82 5.15Q21.08 5.17 21.50 5.17L21.50 5.17L21.50 5.17Q22.39 5.17 23.16 5.12L23.16 5.12L23.16 5.12Q23.93 5.07 24.55 5.01L24.55 5.01L24.55 5.01Q25.17 4.96 25.62 4.91L25.62 4.91L25.62 4.91Q26.07 4.86 26.31 4.86L26.31 4.86L26.31 4.86Q26.63 4.86 26.88 5.19L26.88 5.19L26.88 5.19Q27.13 5.53 27.26 6.15L27.26 6.15L27.26 6.15Q26.82 6.10 26.55 6.09L26.55 6.09L26.55 6.09Q26.28 6.08 26.07 6.08L26.07 6.08L26.07 6.08Q25.30 6.08 24.66 6.15L24.66 6.15L24.66 6.15Q24.02 6.23 23.44 6.31L23.44 6.31L23.44 6.31Q23.35 6.44 23.25 6.64L23.25 6.64L23.25 6.64Q23.14 6.83 22.97 7.18L22.97 7.18L22.97 7.18Q22.81 7.53 22.56 8.06L22.56 8.06L22.56 8.06Q22.32 8.60 21.97 9.39L21.97 9.39L21.97 9.39Q22.50 9.31 22.97 9.26L22.97 9.26L22.97 9.26Q23.44 9.21 23.76 9.21ZM34.44 14.45L34.44 14.45L34.44 14.45Q34.65 13.99 34.94 13.26L34.94 13.26L34.94 13.26Q35.24 12.53 35.56 11.68L35.56 11.68L35.56 11.68Q35.88 10.84 36.22 9.95L36.22 9.95L36.22 9.95Q36.55 9.06 36.85 8.26L36.85 8.26L36.85 8.26Q37.14 7.46 37.36 6.83L37.36 6.83L37.36 6.83Q37.58 6.20 37.67 5.87L37.67 5.87L37.67 5.87Q36.79 6.23 36.16 6.97L36.16 6.97L36.16 6.97Q35.53 7.71 35.21 8.83L35.21 8.83L35.21 8.83Q34.89 8.72 34.62 8.43L34.62 8.43L34.62 8.43Q34.36 8.15 34.27 7.71L34.27 7.71L34.27 7.71Q34.41 7.07 34.80 6.54L34.80 6.54L34.80 6.54Q35.18 6.01 35.77 5.63L35.77 5.63L35.77 5.63Q36.36 5.25 37.13 5.05L37.13 5.05L37.13 5.05Q37.90 4.84 38.78 4.84L38.78 4.84L38.78 4.84Q39.90 4.84 40.84 5.17L40.84 5.17L40.84 5.17Q41.78 5.50 42.45 6.09L42.45 6.09L42.45 6.09Q43.12 6.68 43.50 7.50L43.50 7.50L43.50 7.50Q43.88 8.33 43.88 9.34L43.88 9.34L43.88 9.34Q43.88 10.71 43.37 11.96L43.37 11.96L43.37 11.96Q42.87 13.20 42.01 14.15L42.01 14.15L42.01 14.15Q41.15 15.11 40.01 15.67L40.01 15.67L40.01 15.67Q38.88 16.24 37.63 16.24L37.63 16.24L37.63 16.24Q36.48 16.24 35.66 15.79L35.66 15.79L35.66 15.79Q34.85 15.33 34.44 14.45ZM39.38 5.54L39.38 5.54L39.38 5.54Q38.68 5.54 38.05 5.74L38.05 5.74L38.05 5.74Q38.67 5.96 39.07 6.21L39.07 6.21L39.07 6.21Q39.48 6.45 39.63 6.59L39.63 6.59L39.63 6.59Q39.52 6.75 39.30 7.14L39.30 7.14L39.30 7.14Q39.09 7.53 38.80 8.09L38.80 8.09L38.80 8.09Q38.51 8.65 38.19 9.32L38.19 9.32L38.19 9.32Q37.87 9.98 37.56 10.68L37.56 10.68L37.56 10.68Q36.76 12.46 36.41 13.48L36.41 13.48L36.41 13.48Q36.05 14.50 36.05 14.90L36.05 14.90L36.05 14.90Q36.25 14.97 36.53 14.99L36.53 14.99L36.53 14.99Q36.81 15.02 37.13 15.02L37.13 15.02L37.13 15.02Q38.26 15.02 39.28 14.50L39.28 14.50L39.28 14.50Q40.29 13.97 41.05 13.09L41.05 13.09L41.05 13.09Q41.82 12.21 42.26 11.04L42.26 11.04L42.26 11.04Q42.70 9.87 42.70 8.58L42.70 8.58L42.70 8.58Q42.70 7.14 41.80 6.34L41.80 6.34L41.80 6.34Q40.91 5.54 39.38 5.54ZM56.77 5.75L56.77 5.75L56.77 5.75Q56.15 6.58 55.65 7.57L55.65 7.57L55.65 7.57Q55.15 8.57 54.79 9.61L54.79 9.61L54.79 9.61Q54.43 10.65 54.24 11.67L54.24 11.67L54.24 11.67Q54.05 12.68 54.05 13.57L54.05 13.57L54.05 13.57Q54.05 14.66 54.38 15.15L54.38 15.15L54.38 15.15Q54.70 15.64 55.48 15.64L55.48 15.64L55.48 15.64Q56.39 15.64 57.08 15.00L57.08 15.00L57.08 15.00Q57.76 14.36 58.37 13.24L58.37 13.24L58.37 13.24Q58.76 12.52 59.04 11.65L59.04 11.65L59.04 11.65Q59.32 10.78 59.49 9.86L59.49 9.86L59.49 9.86Q59.67 8.95 59.75 8.02L59.75 8.02L59.75 8.02Q59.84 7.08 59.84 6.23L59.84 6.23L59.84 6.23Q59.84 5.68 59.82 5.43L59.82 5.43L59.82 5.43Q59.81 5.18 59.78 5.03L59.78 5.03L59.78 5.03Q59.82 5.03 59.99 5.05L59.99 5.05L59.99 5.05Q60.16 5.08 60.37 5.12L60.37 5.12L60.37 5.12Q60.59 5.17 60.81 5.24L60.81 5.24L60.81 5.24Q61.03 5.31 61.18 5.39L61.18 5.39L61.18 5.39Q61.11 6.45 60.92 7.59L60.92 7.59L60.92 7.59Q60.73 8.72 60.42 9.83L60.42 9.83L60.42 9.83Q60.12 10.93 59.71 11.96L59.71 11.96L59.71 11.96Q59.30 12.98 58.80 13.79L58.80 13.79L58.80 13.79Q58.06 14.99 57.13 15.67L57.13 15.67L57.13 15.67Q56.21 16.35 54.95 16.35L54.95 16.35L54.95 16.35Q53.66 16.35 52.95 15.60L52.95 15.60L52.95 15.60Q52.23 14.85 52.23 13.33L52.23 13.33L52.23 13.33Q52.23 12.45 52.43 11.33L52.43 11.33L52.43 11.33Q52.63 10.22 52.95 9.07L52.95 9.07L52.95 9.07Q53.28 7.91 53.72 6.81L53.72 6.81L53.72 6.81Q54.15 5.71 54.63 4.84L54.63 4.84L54.63 4.84Q54.87 4.86 55.19 4.94L55.19 4.94L55.19 4.94Q55.51 5.03 55.82 5.16L55.82 5.16L55.82 5.16Q56.13 5.29 56.38 5.45L56.38 5.45L56.38 5.45Q56.64 5.61 56.77 5.75ZM68.73 12.43L68.73 12.43L68.73 12.43Q68.73 11.45 68.96 10.51L68.96 10.51L68.96 10.51Q69.19 9.56 69.61 8.71L69.61 8.71L69.61 8.71Q70.03 7.87 70.61 7.16L70.61 7.16L70.61 7.16Q71.19 6.45 71.88 5.94L71.88 5.94L71.88 5.94Q72.58 5.42 73.36 5.13L73.36 5.13L73.36 5.13Q74.14 4.84 74.97 4.84L74.97 4.84L74.97 4.84Q75.94 4.84 76.47 5.25L76.47 5.25L76.47 5.25Q77.01 5.66 77.01 6.38L77.01 6.38L77.01 6.38Q77.01 6.66 76.94 6.96L76.94 6.96L76.94 6.96Q76.86 7.25 76.71 7.54L76.71 7.54L76.71 7.54Q76.57 7.83 76.37 8.09L76.37 8.09L76.37 8.09Q76.17 8.36 75.94 8.55L75.94 8.55L75.94 8.55Q75.57 8.50 75.31 8.22L75.31 8.22L75.31 8.22Q75.04 7.95 74.97 7.59L74.97 7.59L74.97 7.59Q75.46 7.18 75.75 6.74L75.75 6.74L75.75 6.74Q76.03 6.30 76.03 5.94L76.03 5.94L76.03 5.94Q76.03 5.32 75.26 5.32L75.26 5.32L75.26 5.32Q74.94 5.32 74.60 5.45L74.60 5.45L74.60 5.45Q74.26 5.59 73.91 5.82L73.91 5.82L73.91 5.82Q73.56 6.06 73.23 6.40L73.23 6.40L73.23 6.40Q72.90 6.73 72.62 7.14L72.62 7.14L72.62 7.14Q70.67 9.94 70.67 12.87L70.67 12.87L70.67 12.87Q70.67 13.90 70.99 14.53L70.99 14.53L70.99 14.53Q71.32 15.16 71.85 15.27L71.85 15.27L71.85 15.27Q72.45 15.13 73.37 14.50L73.37 14.50L73.37 14.50Q74.30 13.87 75.39 12.87L75.39 12.87L75.39 12.87Q75.53 13.01 75.56 13.16L75.56 13.16L75.56 13.16Q75.15 13.69 74.72 14.18L74.72 14.18L74.72 14.18Q74.28 14.67 73.86 15.08L73.86 15.08L73.86 15.08Q73.43 15.48 73.02 15.79L73.02 15.79L73.02 15.79Q72.60 16.10 72.25 16.27L72.25 16.27L72.25 16.27Q70.52 16.24 69.62 15.27L69.62 15.27L69.62 15.27Q68.73 14.31 68.73 12.43ZM84.03 14.38L84.03 14.38L84.03 14.38Q84.03 13.87 84.19 13.07L84.19 13.07L84.19 13.07Q84.35 12.26 84.61 11.33L84.61 11.33L84.61 11.33Q84.87 10.40 85.20 9.43L85.20 9.43L85.20 9.43Q85.54 8.46 85.89 7.60L85.89 7.60L85.89 7.60Q86.24 6.75 86.58 6.10L86.58 6.10L86.58 6.10Q86.91 5.46 87.18 5.18L87.18 5.18L87.18 5.18Q87.32 5.19 87.55 5.29L87.55 5.29L87.55 5.29Q87.78 5.38 88.02 5.50L88.02 5.50L88.02 5.50Q88.26 5.63 88.45 5.78L88.45 5.78L88.45 5.78Q88.65 5.92 88.70 6.05L88.70 6.05L88.70 6.05Q88.30 6.41 87.90 7.15L87.90 7.15L87.90 7.15Q87.50 7.88 87.13 8.82L87.13 8.82L87.13 8.82Q86.76 9.76 86.44 10.80L86.44 10.80L86.44 10.80Q86.11 11.84 85.88 12.82L85.88 12.82L85.88 12.82Q85.64 13.80 85.50 14.64L85.50 14.64L85.50 14.64Q85.37 15.48 85.37 16.00L85.37 16.00L85.37 16.00Q85.37 16.24 85.41 16.30L85.41 16.30L85.41 16.30Q85.11 16.28 84.97 16.19L84.97 16.19L84.97 16.19Q84.83 16.10 84.75 16.00L84.75 16.00L84.75 16.00Q84.67 15.89 84.61 15.79L84.61 15.79L84.61 15.79Q84.55 15.68 84.42 15.62L84.42 15.62L84.42 15.62Q84.32 15.58 84.25 15.43L84.25 15.43L84.25 15.43Q84.18 15.27 84.13 15.09L84.13 15.09L84.13 15.09Q84.08 14.90 84.06 14.70L84.06 14.70L84.06 14.70Q84.03 14.50 84.03 14.38ZM96.26 16.24L96.26 16.24L96.26 16.24Q95.47 16.00 95.19 15.79L95.19 15.79L95.19 15.79Q94.91 15.57 94.91 15.19L94.91 15.19L94.91 15.19Q94.91 14.77 95.10 14.01L95.10 14.01L95.10 14.01Q95.30 13.24 95.61 12.31L95.61 12.31L95.61 12.31Q95.93 11.37 96.33 10.35L96.33 10.35L96.33 10.35Q96.74 9.32 97.16 8.39L97.16 8.39L97.16 8.39Q97.58 7.45 97.98 6.67L97.98 6.67L97.98 6.67Q98.38 5.89 98.69 5.46L98.69 5.46L98.59 4.87L98.59 4.87Q98.78 4.87 99.13 4.97L99.13 4.97L99.13 4.97Q99.48 5.07 99.84 5.21L99.84 5.21L99.84 5.21Q100.20 5.35 100.47 5.49L100.47 5.49L100.47 5.49Q100.74 5.64 100.77 5.74L100.77 5.74L100.77 5.74Q100.70 6.08 100.66 6.76L100.66 6.76L100.66 6.76Q100.62 7.43 100.62 8.20L100.62 8.20L100.62 8.20Q100.62 9.73 100.74 11.19L100.74 11.19L100.74 11.19Q100.86 12.66 101.29 14.17L101.29 14.17L101.29 14.17Q101.51 13.05 101.77 11.94L101.77 11.94L101.77 11.94Q102.03 10.82 102.31 9.81L102.31 9.81L102.31 9.81Q102.59 8.79 102.87 7.92L102.87 7.92L102.87 7.92Q103.15 7.06 103.41 6.40L103.41 6.40L103.41 6.40Q103.67 5.75 103.89 5.38L103.89 5.38L103.89 5.38Q104.12 5.01 104.30 4.98L104.30 4.98L104.30 4.98Q104.45 5.01 104.64 5.10L104.64 5.10L104.64 5.10Q104.82 5.19 104.99 5.32L104.99 5.32L104.99 5.32Q105.15 5.45 105.29 5.60L105.29 5.60L105.29 5.60Q105.43 5.75 105.52 5.91L105.52 5.91L105.52 5.91Q105.07 6.09 104.63 6.76L104.63 6.76L104.63 6.76Q104.19 7.43 103.79 8.39L103.79 8.39L103.79 8.39Q103.39 9.35 103.05 10.47L103.05 10.47L103.05 10.47Q102.70 11.59 102.44 12.68L102.44 12.68L102.44 12.68Q102.19 13.76 102.04 14.69L102.04 14.69L102.04 14.69Q101.89 15.61 101.88 16.17L101.88 16.17L101.88 16.17Q101.88 16.20 101.89 16.21L101.89 16.21L101.89 16.21Q101.85 16.23 101.80 16.23L101.80 16.23L101.80 16.23Q101.75 16.23 101.71 16.23L101.71 16.23L101.71 16.23Q101.07 16.23 100.57 16.07L100.57 16.07L100.57 16.07Q100.07 15.90 99.92 15.61L99.92 15.61L99.92 15.61Q99.62 14.43 99.43 13.34L99.43 13.34L99.43 13.34Q99.23 12.25 99.10 11.16L99.10 11.16L99.10 11.16Q98.97 10.07 98.89 8.95L98.89 8.95L98.89 8.95Q98.81 7.84 98.77 6.62L98.77 6.62L98.77 6.62Q98.50 7.04 98.21 7.72L98.21 7.72L98.21 7.72Q97.92 8.40 97.64 9.21L97.64 9.21L97.64 9.21Q97.36 10.02 97.10 10.92L97.10 10.92L97.10 10.92Q96.84 11.82 96.64 12.67L96.64 12.67L96.64 12.67Q96.45 13.52 96.33 14.29L96.33 14.29L96.33 14.29Q96.22 15.05 96.22 15.61L96.22 15.61L96.22 15.61Q96.22 15.90 96.23 16.03L96.23 16.03L96.23 16.03Q96.24 16.16 96.26 16.24ZM119.34 10.72L119.34 10.72L119.34 10.72Q119.70 10.72 119.91 10.98L119.91 10.98L119.91 10.98Q120.12 11.23 120.12 11.68L120.12 11.68L120.12 11.68Q120.12 11.79 120.11 11.91L120.11 11.91L120.11 11.91Q120.09 12.03 120.06 12.11L120.06 12.11L120.06 12.11Q119.77 12.04 119.42 12.03L119.42 12.03L119.42 12.03Q119.34 12.64 118.97 13.32L118.97 13.32L118.97 13.32Q118.61 14 118.09 14.60L118.09 14.60L118.09 14.60Q117.57 15.19 116.96 15.64L116.96 15.64L116.96 15.64Q116.34 16.09 115.74 16.24L115.74 16.24L115.74 16.24Q113.86 16.20 113.00 15.27L113.00 15.27L113.00 15.27Q112.14 14.34 112.14 12.36L112.14 12.36L112.14 12.36Q112.14 10.92 112.67 9.57L112.67 9.57L112.67 9.57Q113.20 8.22 114.09 7.17L114.09 7.17L114.09 7.17Q114.97 6.12 116.11 5.48L116.11 5.48L116.11 5.48Q117.25 4.84 118.48 4.84L118.48 4.84L118.48 4.84Q119.45 4.84 119.99 5.25L119.99 5.25L119.99 5.25Q120.53 5.66 120.53 6.40L120.53 6.40L120.53 6.40Q120.53 6.89 120.30 7.31L120.30 7.31L120.30 7.31Q120.06 7.73 119.53 8.22L119.53 8.22L119.53 8.22Q119.21 8.12 118.97 7.88L118.97 7.88L118.97 7.88Q118.73 7.63 118.68 7.31L118.68 7.31L118.68 7.31Q119.15 6.96 119.35 6.66L119.35 6.66L119.35 6.66Q119.55 6.37 119.55 5.96L119.55 5.96L119.55 5.96Q119.55 5.32 118.78 5.32L118.78 5.32L118.78 5.32Q118.15 5.32 117.42 5.79L117.42 5.79L117.42 5.79Q116.70 6.26 115.98 7.14L115.98 7.14L115.98 7.14Q114.94 8.39 114.46 9.71L114.46 9.71L114.46 9.71Q113.99 11.03 113.99 12.68L113.99 12.68L113.99 12.68Q113.99 13.30 114.11 13.80L114.11 13.80L114.11 13.80Q114.24 14.31 114.45 14.69L114.45 14.69L114.45 14.69Q114.66 15.06 114.95 15.29L114.95 15.29L114.95 15.29Q115.23 15.51 115.57 15.54L115.57 15.54L115.57 15.54Q116.02 15.44 116.47 15.09L116.47 15.09L116.47 15.09Q116.91 14.73 117.28 14.25L117.28 14.25L117.28 14.25Q117.66 13.76 117.91 13.21L117.91 13.21L117.91 13.21Q118.17 12.66 118.23 12.15L118.23 12.15L118.23 12.15Q117.84 12.24 117.48 12.31L117.48 12.31L117.48 12.31Q117.12 12.39 116.80 12.39L116.80 12.39L116.80 12.39Q116.38 12.39 116.07 12.18L116.07 12.18L116.07 12.18Q115.75 11.97 115.64 11.61L115.64 11.61L115.64 11.61Q115.89 11.47 116.38 11.31L116.38 11.31L116.38 11.31Q116.86 11.16 117.40 11.03L117.40 11.03L117.40 11.03Q117.95 10.89 118.47 10.81L118.47 10.81L118.47 10.81Q119 10.72 119.34 10.72ZM143.88 9.34L143.88 9.34L143.88 9.34Q144.33 9.34 144.58 9.59L144.58 9.59L144.58 9.59Q144.84 9.84 144.84 10.29L144.84 10.29L144.84 10.29Q144.84 10.40 144.83 10.52L144.83 10.52L144.83 10.52Q144.82 10.64 144.77 10.72L144.77 10.72L144.77 10.72Q144.59 10.70 144.37 10.68L144.37 10.68L144.37 10.68Q144.14 10.65 143.84 10.65L143.84 10.65L143.84 10.65Q143.21 10.65 142.58 10.77L142.58 10.77L142.58 10.77Q141.95 10.88 141.37 10.95L141.37 10.95L141.37 10.95Q140.74 12.43 140.34 13.73L140.34 13.73L140.34 13.73Q139.93 15.04 139.71 16.31L139.71 16.31L139.71 16.31Q139.23 16.20 138.87 15.90L138.87 15.90L138.87 15.90Q138.50 15.61 138.18 15.08L138.18 15.08L138.18 15.08Q138.28 14.85 138.42 14.54L138.42 14.54L138.42 14.54Q138.56 14.22 138.75 13.74L138.75 13.74L138.75 13.74Q138.95 13.26 139.22 12.56L139.22 12.56L139.22 12.56Q139.50 11.87 139.87 10.91L139.87 10.91L139.87 10.91Q139.29 10.71 139.10 10.22L139.10 10.22L139.10 10.22Q139.17 10.15 139.50 10.06L139.50 10.06L139.50 10.06Q139.82 9.97 140.28 9.86L140.28 9.86L140.28 9.86Q140.49 9.31 140.64 8.88L140.64 8.88L140.64 8.88Q140.80 8.46 140.92 8.07L140.92 8.07L140.92 8.07Q141.05 7.69 141.15 7.32L141.15 7.32L141.15 7.32Q141.26 6.94 141.34 6.52L141.34 6.52L141.27 6.52L141.27 6.52Q140.74 6.52 140.41 6.27L140.41 6.27L140.41 6.27Q140.08 6.02 140.08 5.61L140.08 5.61L140.08 5.61Q140.08 5.50 140.12 5.35L140.12 5.35L140.12 5.35Q140.15 5.19 140.21 5.08L140.21 5.08L140.21 5.08Q140.48 5.12 140.73 5.14L140.73 5.14L140.73 5.14Q140.99 5.15 141.41 5.15L141.41 5.15L141.41 5.15Q142.30 5.15 143.07 5.10L143.07 5.10L143.07 5.10Q143.84 5.05 144.46 5.00L144.46 5.00L144.46 5.00Q145.08 4.94 145.53 4.89L145.53 4.89L145.53 4.89Q145.98 4.84 146.22 4.84L146.22 4.84L146.22 4.84Q146.54 4.84 146.79 5.18L146.79 5.18L146.79 5.18Q147.04 5.52 147.18 6.13L147.18 6.13L147.18 6.13Q146.73 6.09 146.46 6.08L146.46 6.08L146.46 6.08Q146.19 6.06 145.98 6.06L145.98 6.06L145.98 6.06Q145.26 6.06 144.67 6.13L144.67 6.13L144.67 6.13Q144.07 6.19 143.54 6.27L143.54 6.27L143.54 6.27Q143.46 6.40 143.35 6.59L143.35 6.59L143.35 6.59Q143.25 6.79 143.08 7.15L143.08 7.15L143.08 7.15Q142.91 7.50 142.65 8.08L142.65 8.08L142.65 8.08Q142.39 8.65 142.00 9.53L142.00 9.53L142.00 9.53Q142.55 9.45 143.04 9.39L143.04 9.39L143.04 9.39Q143.54 9.34 143.88 9.34ZM159.18 4.98L159.18 4.98L159.18 4.98Q159.45 5.10 159.73 5.27L159.73 5.27L159.73 5.27Q160.01 5.45 160.24 5.63L160.24 5.63L160.24 5.63Q160.48 5.81 160.64 5.98L160.64 5.98L160.64 5.98Q160.80 6.16 160.82 6.27L160.82 6.27L160.82 6.27Q160.58 6.22 160.34 6.20L160.34 6.20L160.34 6.20Q160.10 6.17 159.91 6.17L159.91 6.17L159.91 6.17Q159.28 6.17 158.65 6.48L158.65 6.48L158.65 6.48Q158.03 6.79 157.47 7.32L157.47 7.32L157.47 7.32Q156.91 7.85 156.44 8.57L156.44 8.57L156.44 8.57Q155.96 9.28 155.62 10.09L155.62 10.09L155.62 10.09Q155.27 10.91 155.08 11.77L155.08 11.77L155.08 11.77Q154.88 12.64 154.88 13.48L154.88 13.48L154.88 13.48Q154.88 14.57 155.25 15.11L155.25 15.11L155.25 15.11Q155.61 15.64 156.31 15.64L156.31 15.64L156.31 15.64Q156.65 15.64 157.04 15.51L157.04 15.51L157.04 15.51Q157.43 15.37 157.84 15.13L157.84 15.13L157.84 15.13Q158.24 14.90 158.63 14.56L158.63 14.56L158.63 14.56Q159.03 14.22 159.36 13.82L159.36 13.82L159.36 13.82Q159.85 13.23 160.24 12.48L160.24 12.48L160.24 12.48Q160.64 11.73 160.91 10.89L160.91 10.89L160.91 10.89Q161.18 10.05 161.33 9.16L161.33 9.16L161.33 9.16Q161.48 8.27 161.48 7.42L161.48 7.42L161.48 7.42Q161.48 7.08 161.46 6.85L161.46 6.85L161.46 6.85Q161.45 6.62 161.43 6.46L161.43 6.46L161.43 6.46Q161.41 6.30 161.39 6.20L161.39 6.20L161.39 6.20Q161.38 6.10 161.36 6.03L161.36 6.03L161.36 6.03Q161.53 6.12 161.73 6.24L161.73 6.24L161.73 6.24Q161.94 6.36 162.11 6.59L162.11 6.59L162.11 6.59Q162.29 6.82 162.41 7.20L162.41 7.20L162.41 7.20Q162.53 7.57 162.53 8.18L162.53 8.18L162.53 8.18Q162.53 9.16 162.29 10.10L162.29 10.10L162.29 10.10Q162.06 11.05 161.65 11.90L161.65 11.90L161.65 11.90Q161.24 12.75 160.68 13.50L160.68 13.50L160.68 13.50Q160.12 14.24 159.47 14.80L159.47 14.80L159.47 14.80Q158.63 15.54 157.68 15.95L157.68 15.95L157.68 15.95Q156.73 16.35 155.85 16.35L155.85 16.35L155.85 16.35Q154.56 16.35 153.88 15.53L153.88 15.53L153.88 15.53Q153.20 14.71 153.20 13.12L153.20 13.12L153.20 13.12Q153.20 12.26 153.39 11.31L153.39 11.31L153.39 11.31Q153.58 10.36 153.92 9.44L153.92 9.44L153.92 9.44Q154.27 8.51 154.74 7.68L154.74 7.68L154.74 7.68Q155.22 6.85 155.78 6.21L155.78 6.21L155.78 6.21Q156.35 5.57 157.00 5.19L157.00 5.19L157.00 5.19Q157.65 4.82 158.34 4.82L158.34 4.82L158.34 4.82Q158.56 4.82 158.76 4.85L158.76 4.85L158.76 4.85Q158.96 4.89 159.18 4.98ZM176.30 4.98L176.30 4.98L176.30 4.98Q176.57 5.10 176.85 5.27L176.85 5.27L176.85 5.27Q177.13 5.45 177.37 5.63L177.37 5.63L177.37 5.63Q177.60 5.81 177.76 5.98L177.76 5.98L177.76 5.98Q177.93 6.16 177.94 6.27L177.94 6.27L177.94 6.27Q177.70 6.22 177.46 6.20L177.46 6.20L177.46 6.20Q177.23 6.17 177.03 6.17L177.03 6.17L177.03 6.17Q176.40 6.17 175.78 6.48L175.78 6.48L175.78 6.48Q175.15 6.79 174.59 7.32L174.59 7.32L174.59 7.32Q174.03 7.85 173.56 8.57L173.56 8.57L173.56 8.57Q173.08 9.28 172.74 10.09L172.74 10.09L172.74 10.09Q172.40 10.91 172.20 11.77L172.20 11.77L172.20 11.77Q172.00 12.64 172.00 13.48L172.00 13.48L172.00 13.48Q172.00 14.57 172.37 15.11L172.37 15.11L172.37 15.11Q172.73 15.64 173.43 15.64L173.43 15.64L173.43 15.64Q173.77 15.64 174.16 15.51L174.16 15.51L174.16 15.51Q174.55 15.37 174.96 15.13L174.96 15.13L174.96 15.13Q175.36 14.90 175.76 14.56L175.76 14.56L175.76 14.56Q176.15 14.22 176.48 13.82L176.48 13.82L176.48 13.82Q176.97 13.23 177.37 12.48L177.37 12.48L177.37 12.48Q177.76 11.73 178.03 10.89L178.03 10.89L178.03 10.89Q178.30 10.05 178.45 9.16L178.45 9.16L178.45 9.16Q178.60 8.27 178.60 7.42L178.60 7.42L178.60 7.42Q178.60 7.08 178.58 6.85L178.58 6.85L178.58 6.85Q178.57 6.62 178.55 6.46L178.55 6.46L178.55 6.46Q178.53 6.30 178.51 6.20L178.51 6.20L178.51 6.20Q178.50 6.10 178.49 6.03L178.49 6.03L178.49 6.03Q178.65 6.12 178.86 6.24L178.86 6.24L178.86 6.24Q179.06 6.36 179.23 6.59L179.23 6.59L179.23 6.59Q179.41 6.82 179.53 7.20L179.53 7.20L179.53 7.20Q179.65 7.57 179.65 8.18L179.65 8.18L179.65 8.18Q179.65 9.16 179.42 10.10L179.42 10.10L179.42 10.10Q179.19 11.05 178.77 11.90L178.77 11.90L178.77 11.90Q178.36 12.75 177.80 13.50L177.80 13.50L177.80 13.50Q177.24 14.24 176.60 14.80L176.60 14.80L176.60 14.80Q175.76 15.54 174.80 15.95L174.80 15.95L174.80 15.95Q173.85 16.35 172.97 16.35L172.97 16.35L172.97 16.35Q171.68 16.35 171.00 15.53L171.00 15.53L171.00 15.53Q170.32 14.71 170.32 13.12L170.32 13.12L170.32 13.12Q170.32 12.26 170.51 11.31L170.51 11.31L170.51 11.31Q170.70 10.36 171.04 9.44L171.04 9.44L171.04 9.44Q171.39 8.51 171.86 7.68L171.86 7.68L171.86 7.68Q172.34 6.85 172.91 6.21L172.91 6.21L172.91 6.21Q173.47 5.57 174.12 5.19L174.12 5.19L174.12 5.19Q174.78 4.82 175.46 4.82L175.46 4.82L175.46 4.82Q175.69 4.82 175.88 4.85L175.88 4.85L175.88 4.85Q176.08 4.89 176.30 4.98ZM187.91 14.45L187.91 14.45L187.91 14.45Q188.12 13.99 188.41 13.26L188.41 13.26L188.41 13.26Q188.71 12.53 189.03 11.68L189.03 11.68L189.03 11.68Q189.35 10.84 189.69 9.95L189.69 9.95L189.69 9.95Q190.02 9.06 190.32 8.26L190.32 8.26L190.32 8.26Q190.61 7.46 190.83 6.83L190.83 6.83L190.83 6.83Q191.04 6.20 191.14 5.87L191.14 5.87L191.14 5.87Q190.26 6.23 189.63 6.97L189.63 6.97L189.63 6.97Q189.00 7.71 188.68 8.83L188.68 8.83L188.68 8.83Q188.36 8.72 188.09 8.43L188.09 8.43L188.09 8.43Q187.82 8.15 187.74 7.71L187.74 7.71L187.74 7.71Q187.88 7.07 188.26 6.54L188.26 6.54L188.26 6.54Q188.65 6.01 189.24 5.63L189.24 5.63L189.24 5.63Q189.83 5.25 190.60 5.05L190.60 5.05L190.60 5.05Q191.37 4.84 192.25 4.84L192.25 4.84L192.25 4.84Q193.37 4.84 194.31 5.17L194.31 5.17L194.31 5.17Q195.24 5.50 195.92 6.09L195.92 6.09L195.92 6.09Q196.59 6.68 196.97 7.50L196.97 7.50L196.97 7.50Q197.34 8.33 197.34 9.34L197.34 9.34L197.34 9.34Q197.34 10.71 196.84 11.96L196.84 11.96L196.84 11.96Q196.34 13.20 195.47 14.15L195.47 14.15L195.47 14.15Q194.61 15.11 193.48 15.67L193.48 15.67L193.48 15.67Q192.35 16.24 191.10 16.24L191.10 16.24L191.10 16.24Q189.95 16.24 189.13 15.79L189.13 15.79L189.13 15.79Q188.31 15.33 187.91 14.45ZM192.85 5.54L192.85 5.54L192.85 5.54Q192.15 5.54 191.52 5.74L191.52 5.74L191.52 5.74Q192.14 5.96 192.54 6.21L192.54 6.21L192.54 6.21Q192.95 6.45 193.10 6.59L193.10 6.59L193.10 6.59Q192.99 6.75 192.77 7.14L192.77 7.14L192.77 7.14Q192.56 7.53 192.27 8.09L192.27 8.09L192.27 8.09Q191.98 8.65 191.66 9.32L191.66 9.32L191.66 9.32Q191.34 9.98 191.03 10.68L191.03 10.68L191.03 10.68Q190.23 12.46 189.87 13.48L189.87 13.48L189.87 13.48Q189.52 14.50 189.52 14.90L189.52 14.90L189.52 14.90Q189.71 14.97 189.99 14.99L189.99 14.99L189.99 14.99Q190.27 15.02 190.60 15.02L190.60 15.02L190.60 15.02Q191.73 15.02 192.74 14.50L192.74 14.50L192.74 14.50Q193.76 13.97 194.52 13.09L194.52 13.09L194.52 13.09Q195.29 12.21 195.73 11.04L195.73 11.04L195.73 11.04Q196.17 9.87 196.17 8.58L196.17 8.58L196.17 8.58Q196.17 7.14 195.27 6.34L195.27 6.34L195.27 6.34Q194.38 5.54 192.85 5.54ZM216.99 15.61L216.99 15.61L216.99 15.61Q216.92 15.04 216.88 14.36L216.88 14.36L216.88 14.36Q216.85 13.68 216.85 13.09L216.85 13.09L216.85 13.09Q216.85 12.15 216.91 11.29L216.91 11.29L216.91 11.29Q216.97 10.43 217.06 9.48L217.06 9.48L217.06 9.48Q217.15 8.54 217.27 7.43L217.27 7.43L217.27 7.43Q217.38 6.31 217.46 4.86L217.46 4.86L217.46 4.86Q217.64 4.86 217.99 4.96L217.99 4.96L217.99 4.96Q218.33 5.07 218.68 5.21L218.68 5.21L218.68 5.21Q219.03 5.35 219.30 5.49L219.30 5.49L219.30 5.49Q219.56 5.64 219.60 5.74L219.60 5.74L219.60 5.74Q219.37 6.29 219.18 7.18L219.18 7.18L219.18 7.18Q218.99 8.06 218.86 9.11L218.86 9.11L218.86 9.11Q218.74 10.16 218.67 11.27L218.67 11.27L218.67 11.27Q218.60 12.38 218.60 13.34L218.60 13.34L218.60 13.34Q218.60 13.79 218.61 14.22L218.61 14.22L218.61 14.22Q218.62 14.66 218.65 15.02L218.65 15.02L218.65 15.02Q218.95 14.59 219.33 13.78L219.33 13.78L219.33 13.78Q219.72 12.98 220.13 11.98L220.13 11.98L220.13 11.98Q220.54 10.99 220.95 9.91L220.95 9.91L220.95 9.91Q221.37 8.82 221.72 7.83L221.72 7.83L221.72 7.83Q222.07 6.85 222.31 6.05L222.31 6.05L222.31 6.05Q222.56 5.26 222.66 4.86L222.66 4.86L222.66 4.86Q222.84 4.86 223.19 4.96L223.19 4.96L223.19 4.96Q223.55 5.07 223.89 5.21L223.89 5.21L223.89 5.21Q224.24 5.35 224.50 5.49L224.50 5.49L224.50 5.49Q224.77 5.64 224.80 5.74L224.80 5.74L224.80 5.74Q224.56 6.29 224.37 7.18L224.37 7.18L224.37 7.18Q224.18 8.06 224.06 9.11L224.06 9.11L224.06 9.11Q223.93 10.16 223.86 11.27L223.86 11.27L223.86 11.27Q223.79 12.38 223.79 13.34L223.79 13.34L223.79 13.34Q223.79 13.75 223.80 14.15L223.80 14.15L223.80 14.15Q223.80 14.55 223.83 14.87L223.83 14.87L223.83 14.87Q224.28 13.71 224.76 12.56L224.76 12.56L224.76 12.56Q225.25 11.42 225.72 10.38L225.72 10.38L225.72 10.38Q226.20 9.34 226.65 8.43L226.65 8.43L226.65 8.43Q227.09 7.53 227.47 6.82L227.47 6.82L227.47 6.82Q227.85 6.12 228.13 5.66L228.13 5.66L228.13 5.66Q228.41 5.19 228.56 5.04L228.56 5.04L228.56 5.04Q228.89 5.08 229.23 5.27L229.23 5.27L229.23 5.27Q229.57 5.46 229.84 5.75L229.84 5.75L229.84 5.75Q229.43 6.08 228.91 6.81L228.91 6.81L228.91 6.81Q228.40 7.55 227.85 8.51L227.85 8.51L227.85 8.51Q227.30 9.48 226.75 10.57L226.75 10.57L226.75 10.57Q226.20 11.66 225.72 12.70L225.72 12.70L225.72 12.70Q225.25 13.73 224.87 14.63L224.87 14.63L224.87 14.63Q224.50 15.53 224.31 16.07L224.31 16.07L224.31 16.07Q223.94 16.24 223.59 16.24L223.59 16.24L223.59 16.24Q223.15 16.18 222.75 16.02L222.75 16.02L222.75 16.02Q222.35 15.85 222.18 15.61L222.18 15.61L222.18 15.61Q222.14 15.39 222.11 15.09L222.11 15.09L222.11 15.09Q222.08 14.78 222.07 14.49L222.07 14.49L222.07 14.49Q222.05 14.20 222.05 13.92L222.05 13.92L222.05 13.92Q222.04 13.65 222.04 13.45L222.04 13.45L222.04 13.45Q222.04 12.21 222.14 10.91L222.14 10.91L222.14 10.91Q222.24 9.62 222.38 8.13L222.38 8.13L222.38 8.13Q222.05 9.09 221.66 10.18L221.66 10.18L221.66 10.18Q221.27 11.27 220.84 12.34L220.84 12.34L220.84 12.34Q220.42 13.41 219.97 14.38L219.97 14.38L219.97 14.38Q219.53 15.36 219.11 16.07L219.11 16.07L219.11 16.07Q218.75 16.24 218.40 16.24L218.40 16.24L218.40 16.24Q217.95 16.18 217.55 16.02L217.55 16.02L217.55 16.02Q217.15 15.85 216.99 15.61ZM235.98 16.24L235.98 16.24L235.98 16.24Q235.31 16.04 235.05 15.85L235.05 15.85L235.05 15.85Q234.79 15.65 234.79 15.36L234.79 15.36L234.79 15.36Q234.79 15.13 234.92 14.73L234.92 14.73L234.92 14.73Q235.05 14.32 235.29 13.77L235.29 13.77L235.29 13.77Q235.54 13.22 235.88 12.54L235.88 12.54L235.88 12.54Q236.22 11.87 236.66 11.10L236.66 11.10L236.66 11.10Q236.29 11.09 236.00 11.08L236.00 11.08L236.00 11.08Q235.72 11.07 235.54 11.07L235.54 11.07L235.54 11.07Q235.62 10.86 236.01 10.71L236.01 10.71L236.01 10.71Q236.40 10.56 237.05 10.44L237.05 10.44L237.05 10.44Q237.59 9.53 238.22 8.71L238.22 8.71L238.22 8.71Q238.84 7.88 239.47 7.19L239.47 7.19L239.47 7.19Q240.10 6.50 240.73 5.97L240.73 5.97L240.73 5.97Q241.36 5.45 241.93 5.14L241.93 5.14L241.93 5.14Q241.95 5.04 241.95 4.97L241.95 4.97L241.95 4.97Q241.96 4.90 241.96 4.87L241.96 4.87L241.96 4.87Q242.16 4.87 242.49 4.97L242.49 4.97L242.49 4.97Q242.82 5.07 243.13 5.21L243.13 5.21L243.13 5.21Q243.45 5.35 243.69 5.49L243.69 5.49L243.69 5.49Q243.94 5.64 243.96 5.74L243.96 5.74L243.96 5.74Q243.50 6.55 243.05 8.17L243.05 8.17L243.05 8.17Q242.61 9.79 242.31 12.04L242.31 12.04L242.31 12.04Q242.24 12.60 242.19 13.31L242.19 13.31L242.19 13.31Q242.14 14.03 242.14 14.91L242.14 14.91L242.14 14.91Q242.14 15.22 242.14 15.54L242.14 15.54L242.14 15.54Q242.14 15.86 242.17 16.21L242.17 16.21L242.17 16.21Q242.14 16.23 242.12 16.23L242.12 16.23L242.12 16.23Q242.09 16.23 242.00 16.23L242.00 16.23L242.00 16.23Q241.81 16.23 241.55 16.16L241.55 16.16L241.55 16.16Q241.29 16.10 241.04 16.01L241.04 16.01L241.04 16.01Q240.80 15.92 240.63 15.81L240.63 15.81L240.63 15.81Q240.45 15.69 240.41 15.61L240.41 15.61L240.41 15.61Q240.39 15.43 240.39 15.25L240.39 15.25L240.39 15.25Q240.39 15.08 240.39 14.88L240.39 14.88L240.39 14.88Q240.39 14.01 240.46 13.12L240.46 13.12L240.46 13.12Q240.52 12.22 240.67 11.27L240.67 11.27L240.67 11.27Q240.48 11.26 240.16 11.23L240.16 11.23L240.16 11.23Q239.83 11.21 239.44 11.20L239.44 11.20L239.44 11.20Q239.04 11.19 238.58 11.16L238.58 11.16L238.58 11.16Q238.13 11.14 237.69 11.13L237.69 11.13L237.69 11.13Q237.36 11.76 237.06 12.38L237.06 12.38L237.06 12.38Q236.77 13.01 236.56 13.64L236.56 13.64L236.56 13.64Q236.32 14.31 236.17 14.98L236.17 14.98L236.17 14.98Q236.03 15.65 235.98 16.24ZM241.39 7.83L241.39 7.83L241.39 7.83Q241.44 7.63 241.52 7.29L241.52 7.29L241.52 7.29Q241.60 6.94 241.67 6.57L241.67 6.57L241.67 6.57Q241.32 6.69 240.89 7.03L240.89 7.03L240.89 7.03Q240.46 7.36 240.01 7.86L240.01 7.86L240.01 7.86Q239.55 8.36 239.09 8.98L239.09 8.98L239.09 8.98Q238.62 9.60 238.18 10.30L238.18 10.30L238.18 10.30Q239.36 10.21 240.86 10.18L240.86 10.18L240.86 10.18Q240.97 9.59 241.10 9.01L241.10 9.01L241.10 9.01Q241.23 8.43 241.39 7.83ZM260.37 5.74L260.37 5.74L260.37 5.74Q260.41 5.98 260.44 6.07L260.44 6.07L260.44 6.07Q260.46 6.16 260.46 6.31L260.46 6.31L260.46 6.31Q260.46 6.78 260.25 7.18L260.25 7.18L260.25 7.18Q260.05 7.57 259.70 7.74L259.70 7.74L259.70 7.74Q259.42 7.36 259.01 7.09L259.01 7.09L259.01 7.09Q258.61 6.82 258.13 6.64L258.13 6.64L258.13 6.64Q257.64 6.47 257.12 6.38L257.12 6.38L257.12 6.38Q256.61 6.30 256.12 6.30L256.12 6.30L256.12 6.30Q255.63 6.30 255.20 6.38L255.20 6.38L255.20 6.38Q254.77 6.45 254.44 6.59L254.44 6.59L254.44 6.59Q254.11 6.72 253.92 6.92L253.92 6.92L253.92 6.92Q253.74 7.11 253.74 7.36L253.74 7.36L253.74 7.36Q253.78 7.67 254.11 7.99L254.11 7.99L254.11 7.99Q254.45 8.30 254.94 8.60L254.94 8.60L254.94 8.60Q255.43 8.90 256.02 9.20L256.02 9.20L256.02 9.20Q256.62 9.49 257.19 9.76L257.19 9.76L257.19 9.76Q257.91 10.09 258.43 10.38L258.43 10.38L258.43 10.38Q258.94 10.67 259.28 11.01L259.28 11.01L259.28 11.01Q259.62 11.35 259.78 11.79L259.78 11.79L259.78 11.79Q259.95 12.22 259.95 12.84L259.95 12.84L259.95 12.84Q259.95 13.55 259.71 14.18L259.71 14.18L259.71 14.18Q259.48 14.80 259.02 15.26L259.02 15.26L259.02 15.26Q258.57 15.72 257.92 15.98L257.92 15.98L257.92 15.98Q257.28 16.24 256.48 16.24L256.48 16.24L256.48 16.24Q255.70 16.24 254.79 16.00L254.79 16.00L254.79 16.00Q253.88 15.76 253.08 15.35L253.08 15.35L253.08 15.35Q252.29 14.94 251.77 14.40L251.77 14.40L251.77 14.40Q251.24 13.86 251.24 13.26L251.24 13.26L251.24 13.26Q251.24 12.98 251.40 12.54L251.40 12.54L251.40 12.54Q251.57 12.11 251.99 11.63L251.99 11.63L251.99 11.63Q252.03 12.05 252.44 12.63L252.44 12.63L252.44 12.63Q252.85 13.20 253.68 13.69L253.68 13.69L253.68 13.69Q254.45 14.14 255.27 14.34L255.27 14.34L255.27 14.34Q256.09 14.55 256.80 14.55L256.80 14.55L256.80 14.55Q257.59 14.55 258.08 14.35L258.08 14.35L258.08 14.35Q258.57 14.15 258.85 13.88L258.85 13.88L258.85 13.88Q259.13 13.61 259.24 13.33L259.24 13.33L259.24 13.33Q259.35 13.05 259.36 12.88L259.36 12.88L259.36 12.88Q259.35 12.60 259.10 12.34L259.10 12.34L259.10 12.34Q258.86 12.08 258.45 11.84L258.45 11.84L258.45 11.84Q258.03 11.59 257.49 11.34L257.49 11.34L257.49 11.34Q256.94 11.09 256.35 10.84L256.35 10.84L256.35 10.84Q255.47 10.44 254.83 10.10L254.83 10.10L254.83 10.10Q254.20 9.76 253.78 9.40L253.78 9.40L253.78 9.40Q253.37 9.04 253.18 8.65L253.18 8.65L253.18 8.65Q252.99 8.26 252.99 7.76L252.99 7.76L252.99 7.76Q252.99 6.97 253.47 6.27L253.47 6.27L253.47 6.27Q253.95 5.57 254.84 5.21L254.84 5.21L254.84 5.21Q255.29 5.01 255.80 4.93L255.80 4.93L255.80 4.93Q256.31 4.84 256.80 4.84L256.80 4.84L256.80 4.84Q257.73 4.84 258.61 5.10L258.61 5.10L258.61 5.10Q259.49 5.35 260.37 5.74ZM270.35 6.69L270.35 6.69L270.35 6.69Q269.79 6.69 269.49 6.38L269.49 6.38L269.49 6.38Q269.19 6.06 269.19 5.61L269.19 5.61L269.19 5.61Q269.19 5.50 269.23 5.35L269.23 5.35L269.23 5.35Q269.26 5.19 269.32 5.08L269.32 5.08L269.32 5.08Q269.50 5.17 269.86 5.20L269.86 5.20L269.86 5.20Q270.21 5.24 270.69 5.24L270.69 5.24L270.69 5.24Q271.40 5.24 272.31 5.17L272.31 5.17L272.31 5.17Q273.21 5.11 274.04 5.04L274.04 5.04L274.04 5.04Q274.86 4.97 275.49 4.91L275.49 4.91L275.49 4.91Q276.12 4.84 276.30 4.84L276.30 4.84L276.30 4.84Q276.82 4.84 277.05 5.23L277.05 5.23L277.05 5.23Q277.28 5.61 277.40 6.26L277.40 6.26L277.40 6.26Q277.03 6.23 276.67 6.21L276.67 6.21L276.67 6.21Q276.32 6.19 276.07 6.19L276.07 6.19L276.07 6.19Q275.62 6.19 275.16 6.22L275.16 6.22L275.16 6.22Q274.71 6.24 274.25 6.30L274.25 6.30L274.25 6.30Q274.05 6.71 273.81 7.26L273.81 7.26L273.81 7.26Q273.57 7.81 273.34 8.41L273.34 8.41L273.34 8.41Q273.11 9.02 272.90 9.61L272.90 9.61L272.90 9.61Q272.69 10.21 272.54 10.68L272.54 10.68L272.54 10.68Q272.23 11.61 272.00 12.39L272.00 12.39L272.00 12.39Q271.77 13.17 271.59 13.85L271.59 13.85L271.59 13.85Q271.42 14.53 271.29 15.15L271.29 15.15L271.29 15.15Q271.17 15.76 271.07 16.35L271.07 16.35L271.07 16.35Q270.13 16.21 269.50 15.18L269.50 15.18L269.50 15.18Q269.61 14.74 269.77 14.23L269.77 14.23L269.77 14.23Q269.93 13.72 270.15 13.07L270.15 13.07L270.15 13.07Q270.37 12.42 270.66 11.59L270.66 11.59L270.66 11.59Q270.96 10.77 271.33 9.72L271.33 9.72L271.33 9.72Q271.47 9.32 271.63 8.90L271.63 8.90L271.63 8.90Q271.78 8.47 271.93 8.05L271.93 8.05L271.93 8.05Q272.08 7.63 272.19 7.24L272.19 7.24L272.19 7.24Q272.31 6.85 272.40 6.52L272.40 6.52L272.40 6.52Q271.81 6.59 271.28 6.64L271.28 6.64L271.28 6.64Q270.76 6.69 270.35 6.69ZM288.60 9.21L288.60 9.21L288.60 9.21Q289.06 9.21 289.32 9.46L289.32 9.46L289.32 9.46Q289.58 9.72 289.58 10.16L289.58 10.16L289.58 10.16Q289.58 10.28 289.55 10.39L289.55 10.39L289.55 10.39Q289.53 10.51 289.51 10.60L289.51 10.60L289.51 10.60Q289.32 10.57 289.10 10.55L289.10 10.55L289.10 10.55Q288.88 10.53 288.57 10.53L288.57 10.53L288.57 10.53Q287.97 10.53 287.35 10.63L287.35 10.63L287.35 10.63Q286.73 10.74 286.17 10.81L286.17 10.81L286.17 10.81Q285.85 11.55 285.59 12.24L285.59 12.24L285.59 12.24Q285.32 12.94 285.13 13.51L285.13 13.51L285.13 13.51Q284.94 14.08 284.84 14.50L284.84 14.50L284.84 14.50Q284.73 14.92 284.72 15.13L284.72 15.13L284.72 15.13Q285.85 14.90 287.01 14.73L287.01 14.73L287.01 14.73Q288.16 14.56 289.44 14.48L289.44 14.48L289.44 14.48Q289.59 14.71 289.69 14.99L289.69 14.99L289.69 14.99Q289.80 15.27 289.80 15.60L289.80 15.60L289.80 15.60Q289.80 15.68 289.80 15.78L289.80 15.78L289.80 15.78Q289.80 15.88 289.77 15.97L289.77 15.97L289.77 15.97Q289.38 15.96 288.95 15.95L288.95 15.95L288.95 15.95Q288.51 15.95 287.81 15.95L287.81 15.95L287.81 15.95Q287.35 15.95 286.94 15.97L286.94 15.97L286.94 15.97Q286.52 15.99 286.10 16.03L286.10 16.03L286.10 16.03Q285.68 16.07 285.21 16.14L285.21 16.14L285.21 16.14Q284.75 16.21 284.16 16.31L284.16 16.31L284.16 16.31Q283.51 16.06 282.91 15.08L282.91 15.08L282.91 15.08Q283.15 14.57 283.58 13.54L283.58 13.54L283.58 13.54Q284.00 12.52 284.66 10.79L284.66 10.79L284.66 10.79Q284.03 10.60 283.84 10.09L283.84 10.09L283.84 10.09Q283.91 10.02 284.24 9.92L284.24 9.92L284.24 9.92Q284.58 9.81 285.07 9.70L285.07 9.70L285.07 9.70Q285.28 9.16 285.42 8.75L285.42 8.75L285.42 8.75Q285.57 8.34 285.68 7.99L285.68 7.99L285.68 7.99Q285.80 7.63 285.89 7.29L285.89 7.29L285.89 7.29Q285.98 6.94 286.06 6.54L286.06 6.54L286.06 6.54Q285.57 6.51 285.29 6.27L285.29 6.27L285.29 6.27Q285.01 6.02 285.01 5.63L285.01 5.63L285.01 5.63Q285.01 5.52 285.05 5.36L285.05 5.36L285.05 5.36Q285.08 5.21 285.12 5.10L285.12 5.10L285.12 5.10Q285.40 5.14 285.66 5.15L285.66 5.15L285.66 5.15Q285.92 5.17 286.34 5.17L286.34 5.17L286.34 5.17Q287.22 5.17 287.99 5.12L287.99 5.12L287.99 5.12Q288.76 5.07 289.39 5.01L289.39 5.01L289.39 5.01Q290.01 4.96 290.46 4.91L290.46 4.91L290.46 4.91Q290.91 4.86 291.14 4.86L291.14 4.86L291.14 4.86Q291.47 4.86 291.72 5.19L291.72 5.19L291.72 5.19Q291.97 5.53 292.10 6.15L292.10 6.15L292.10 6.15Q291.66 6.10 291.39 6.09L291.39 6.09L291.39 6.09Q291.12 6.08 290.91 6.08L290.91 6.08L290.91 6.08Q290.14 6.08 289.50 6.15L289.50 6.15L289.50 6.15Q288.86 6.23 288.27 6.31L288.27 6.31L288.27 6.31Q288.19 6.44 288.08 6.64L288.08 6.64L288.08 6.64Q287.98 6.83 287.81 7.18L287.81 7.18L287.81 7.18Q287.64 7.53 287.40 8.06L287.40 8.06L287.40 8.06Q287.15 8.60 286.80 9.39L286.80 9.39L286.80 9.39Q287.34 9.31 287.80 9.26L287.80 9.26L287.80 9.26Q288.27 9.21 288.60 9.21ZM297.16 17.54L297.16 17.54L297.16 17.54Q297.08 17.47 297.01 17.31L297.01 17.31L297.01 17.31Q296.94 17.15 296.94 17.01L296.94 17.01L296.94 17.01Q297.64 16.41 297.94 15.86L297.94 15.86L297.94 15.86Q298.24 15.32 298.24 14.67L298.24 14.67L298.24 14.67Q298.24 14.25 298.21 13.95L298.21 13.95L298.21 13.95Q298.17 13.65 298.07 13.26L298.07 13.26L298.07 13.26Q298.42 13.29 298.77 13.38L298.77 13.38L298.77 13.38Q299.11 13.47 299.38 13.60L299.38 13.60L299.38 13.60Q299.66 13.73 299.84 13.91L299.84 13.91L299.84 13.91Q300.02 14.08 300.06 14.25L300.06 14.25L300.06 14.25Q299.40 16.58 297.16 17.54ZM325.49 4.98L325.49 4.98L325.49 4.98Q325.75 5.10 326.03 5.27L326.03 5.27L326.03 5.27Q326.31 5.45 326.55 5.63L326.55 5.63L326.55 5.63Q326.79 5.81 326.95 5.98L326.95 5.98L326.95 5.98Q327.11 6.16 327.12 6.27L327.12 6.27L327.12 6.27Q326.89 6.22 326.65 6.20L326.65 6.20L326.65 6.20Q326.41 6.17 326.21 6.17L326.21 6.17L326.21 6.17Q325.58 6.17 324.96 6.48L324.96 6.48L324.96 6.48Q324.34 6.79 323.78 7.32L323.78 7.32L323.78 7.32Q323.22 7.85 322.74 8.57L322.74 8.57L322.74 8.57Q322.27 9.28 321.92 10.09L321.92 10.09L321.92 10.09Q321.58 10.91 321.38 11.77L321.38 11.77L321.38 11.77Q321.19 12.64 321.19 13.48L321.19 13.48L321.19 13.48Q321.19 14.57 321.55 15.11L321.55 15.11L321.55 15.11Q321.92 15.64 322.62 15.64L322.62 15.64L322.62 15.64Q322.95 15.64 323.34 15.51L323.34 15.51L323.34 15.51Q323.74 15.37 324.14 15.13L324.14 15.13L324.14 15.13Q324.55 14.90 324.94 14.56L324.94 14.56L324.94 14.56Q325.33 14.22 325.67 13.82L325.67 13.82L325.67 13.82Q326.16 13.23 326.55 12.48L326.55 12.48L326.55 12.48Q326.94 11.73 327.21 10.89L327.21 10.89L327.21 10.89Q327.49 10.05 327.63 9.16L327.63 9.16L327.63 9.16Q327.78 8.27 327.78 7.42L327.78 7.42L327.78 7.42Q327.78 7.08 327.77 6.85L327.77 6.85L327.77 6.85Q327.75 6.62 327.73 6.46L327.73 6.46L327.73 6.46Q327.71 6.30 327.70 6.20L327.70 6.20L327.70 6.20Q327.68 6.10 327.67 6.03L327.67 6.03L327.67 6.03Q327.84 6.12 328.04 6.24L328.04 6.24L328.04 6.24Q328.24 6.36 328.42 6.59L328.42 6.59L328.42 6.59Q328.59 6.82 328.71 7.20L328.71 7.20L328.71 7.20Q328.83 7.57 328.83 8.18L328.83 8.18L328.83 8.18Q328.83 9.16 328.60 10.10L328.60 10.10L328.60 10.10Q328.37 11.05 327.96 11.90L327.96 11.90L327.96 11.90Q327.54 12.75 326.98 13.50L326.98 13.50L326.98 13.50Q326.42 14.24 325.78 14.80L325.78 14.80L325.78 14.80Q324.94 15.54 323.99 15.95L323.99 15.95L323.99 15.95Q323.04 16.35 322.15 16.35L322.15 16.35L322.15 16.35Q320.87 16.35 320.19 15.53L320.19 15.53L320.19 15.53Q319.51 14.71 319.51 13.12L319.51 13.12L319.51 13.12Q319.51 12.26 319.70 11.31L319.70 11.31L319.70 11.31Q319.89 10.36 320.23 9.44L320.23 9.44L320.23 9.44Q320.57 8.51 321.05 7.68L321.05 7.68L321.05 7.68Q321.52 6.85 322.09 6.21L322.09 6.21L322.09 6.21Q322.66 5.57 323.31 5.19L323.31 5.19L323.31 5.19Q323.96 4.82 324.65 4.82L324.65 4.82L324.65 4.82Q324.87 4.82 325.07 4.85L325.07 4.85L325.07 4.85Q325.26 4.89 325.49 4.98ZM337.40 16.24L337.40 16.24L337.40 16.24Q336.60 16.00 336.32 15.79L336.32 15.79L336.32 15.79Q336.04 15.57 336.04 15.19L336.04 15.19L336.04 15.19Q336.04 14.77 336.24 14.01L336.24 14.01L336.24 14.01Q336.43 13.24 336.75 12.31L336.75 12.31L336.75 12.31Q337.06 11.37 337.47 10.35L337.47 10.35L337.47 10.35Q337.88 9.32 338.30 8.39L338.30 8.39L338.30 8.39Q338.72 7.45 339.12 6.67L339.12 6.67L339.12 6.67Q339.51 5.89 339.82 5.46L339.82 5.46L339.72 4.87L339.72 4.87Q339.92 4.87 340.27 4.97L340.27 4.97L340.27 4.97Q340.62 5.07 340.98 5.21L340.98 5.21L340.98 5.21Q341.33 5.35 341.61 5.49L341.61 5.49L341.61 5.49Q341.88 5.64 341.91 5.74L341.91 5.74L341.91 5.74Q341.84 6.08 341.80 6.76L341.80 6.76L341.80 6.76Q341.75 7.43 341.75 8.20L341.75 8.20L341.75 8.20Q341.75 9.73 341.87 11.19L341.87 11.19L341.87 11.19Q341.99 12.66 342.43 14.17L342.43 14.17L342.43 14.17Q342.65 13.05 342.91 11.94L342.91 11.94L342.91 11.94Q343.17 10.82 343.45 9.81L343.45 9.81L343.45 9.81Q343.73 8.79 344.01 7.92L344.01 7.92L344.01 7.92Q344.29 7.06 344.55 6.40L344.55 6.40L344.55 6.40Q344.81 5.75 345.03 5.38L345.03 5.38L345.03 5.38Q345.25 5.01 345.44 4.98L345.44 4.98L345.44 4.98Q345.59 5.01 345.77 5.10L345.77 5.10L345.77 5.10Q345.95 5.19 346.12 5.32L346.12 5.32L346.12 5.32Q346.29 5.45 346.43 5.60L346.43 5.60L346.43 5.60Q346.57 5.75 346.65 5.91L346.65 5.91L346.65 5.91Q346.21 6.09 345.76 6.76L345.76 6.76L345.76 6.76Q345.32 7.43 344.93 8.39L344.93 8.39L344.93 8.39Q344.53 9.35 344.18 10.47L344.18 10.47L344.18 10.47Q343.84 11.59 343.58 12.68L343.58 12.68L343.58 12.68Q343.32 13.76 343.18 14.69L343.18 14.69L343.18 14.69Q343.03 15.61 343.01 16.17L343.01 16.17L343.01 16.17Q343.01 16.20 343.03 16.21L343.03 16.21L343.03 16.21Q342.99 16.23 342.94 16.23L342.94 16.23L342.94 16.23Q342.89 16.23 342.85 16.23L342.85 16.23L342.85 16.23Q342.20 16.23 341.70 16.07L341.70 16.07L341.70 16.07Q341.21 15.90 341.05 15.61L341.05 15.61L341.05 15.61Q340.76 14.43 340.56 13.34L340.56 13.34L340.56 13.34Q340.37 12.25 340.24 11.16L340.24 11.16L340.24 11.16Q340.10 10.07 340.03 8.95L340.03 8.95L340.03 8.95Q339.95 7.84 339.91 6.62L339.91 6.62L339.91 6.62Q339.64 7.04 339.35 7.72L339.35 7.72L339.35 7.72Q339.05 8.40 338.77 9.21L338.77 9.21L338.77 9.21Q338.49 10.02 338.23 10.92L338.23 10.92L338.23 10.92Q337.97 11.82 337.78 12.67L337.78 12.67L337.78 12.67Q337.58 13.52 337.47 14.29L337.47 14.29L337.47 14.29Q337.36 15.05 337.36 15.61L337.36 15.61L337.36 15.61Q337.36 15.90 337.37 16.03L337.37 16.03L337.37 16.03Q337.37 16.16 337.40 16.24ZM358.50 9.21L358.50 9.21L358.50 9.21Q358.96 9.21 359.22 9.46L359.22 9.46L359.22 9.46Q359.48 9.72 359.48 10.16L359.48 10.16L359.48 10.16Q359.48 10.28 359.46 10.39L359.46 10.39L359.46 10.39Q359.44 10.51 359.41 10.60L359.41 10.60L359.41 10.60Q359.23 10.57 359.00 10.55L359.00 10.55L359.00 10.55Q358.78 10.53 358.47 10.53L358.47 10.53L358.47 10.53Q357.87 10.53 357.25 10.63L357.25 10.63L357.25 10.63Q356.64 10.74 356.08 10.81L356.08 10.81L356.08 10.81Q355.75 11.55 355.49 12.24L355.49 12.24L355.49 12.24Q355.22 12.94 355.03 13.51L355.03 13.51L355.03 13.51Q354.84 14.08 354.74 14.50L354.74 14.50L354.74 14.50Q354.63 14.92 354.62 15.13L354.62 15.13L354.62 15.13Q355.75 14.90 356.91 14.73L356.91 14.73L356.91 14.73Q358.06 14.56 359.34 14.48L359.34 14.48L359.34 14.48Q359.49 14.71 359.60 14.99L359.60 14.99L359.60 14.99Q359.70 15.27 359.70 15.60L359.70 15.60L359.70 15.60Q359.70 15.68 359.70 15.78L359.70 15.78L359.70 15.78Q359.70 15.88 359.67 15.97L359.67 15.97L359.67 15.97Q359.28 15.96 358.85 15.95L358.85 15.95L358.85 15.95Q358.41 15.95 357.71 15.95L357.71 15.95L357.71 15.95Q357.25 15.95 356.84 15.97L356.84 15.97L356.84 15.97Q356.43 15.99 356.01 16.03L356.01 16.03L356.01 16.03Q355.59 16.07 355.12 16.14L355.12 16.14L355.12 16.14Q354.65 16.21 354.06 16.31L354.06 16.31L354.06 16.31Q353.42 16.06 352.81 15.08L352.81 15.08L352.81 15.08Q353.05 14.57 353.48 13.54L353.48 13.54L353.48 13.54Q353.91 12.52 354.56 10.79L354.56 10.79L354.56 10.79Q353.93 10.60 353.74 10.09L353.74 10.09L353.74 10.09Q353.81 10.02 354.14 9.92L354.14 9.92L354.14 9.92Q354.48 9.81 354.97 9.70L354.97 9.70L354.97 9.70Q355.18 9.16 355.33 8.75L355.33 8.75L355.33 8.75Q355.47 8.34 355.59 7.99L355.59 7.99L355.59 7.99Q355.70 7.63 355.79 7.29L355.79 7.29L355.79 7.29Q355.88 6.94 355.96 6.54L355.96 6.54L355.96 6.54Q355.47 6.51 355.19 6.27L355.19 6.27L355.19 6.27Q354.91 6.02 354.91 5.63L354.91 5.63L354.91 5.63Q354.91 5.52 354.95 5.36L354.95 5.36L354.95 5.36Q354.98 5.21 355.03 5.10L355.03 5.10L355.03 5.10Q355.31 5.14 355.56 5.15L355.56 5.15L355.56 5.15Q355.82 5.17 356.24 5.17L356.24 5.17L356.24 5.17Q357.13 5.17 357.90 5.12L357.90 5.12L357.90 5.12Q358.67 5.07 359.29 5.01L359.29 5.01L359.29 5.01Q359.91 4.96 360.36 4.91L360.36 4.91L360.36 4.91Q360.81 4.86 361.05 4.86L361.05 4.86L361.05 4.86Q361.37 4.86 361.62 5.19L361.62 5.19L361.62 5.19Q361.87 5.53 362.00 6.15L362.00 6.15L362.00 6.15Q361.56 6.10 361.29 6.09L361.29 6.09L361.29 6.09Q361.02 6.08 360.81 6.08L360.81 6.08L360.81 6.08Q360.04 6.08 359.40 6.15L359.40 6.15L359.40 6.15Q358.76 6.23 358.18 6.31L358.18 6.31L358.18 6.31Q358.09 6.44 357.99 6.64L357.99 6.64L357.99 6.64Q357.88 6.83 357.71 7.18L357.71 7.18L357.71 7.18Q357.55 7.53 357.30 8.06L357.30 8.06L357.30 8.06Q357.06 8.60 356.71 9.39L356.71 9.39L356.71 9.39Q357.24 9.31 357.71 9.26L357.71 9.26L357.71 9.26Q358.18 9.21 358.50 9.21ZM384.36 16.21L384.36 16.21L384.36 16.21Q384.33 16.23 384.30 16.23L384.30 16.23L384.30 16.23Q384.27 16.23 384.19 16.23L384.19 16.23L384.19 16.23Q383.99 16.23 383.73 16.16L383.73 16.16L383.73 16.16Q383.47 16.10 383.23 16.01L383.23 16.01L383.23 16.01Q382.98 15.92 382.81 15.81L382.81 15.81L382.81 15.81Q382.63 15.69 382.59 15.61L382.59 15.61L382.59 15.61Q382.58 15.41 382.58 15.20L382.58 15.20L382.58 15.20Q382.58 14.99 382.58 14.80L382.58 14.80L382.58 14.80Q382.58 13.23 382.81 11.52L382.81 11.52L382.81 11.52Q383.04 9.81 383.57 7.83L383.57 7.83L383.57 7.83Q383.63 7.63 383.69 7.33L383.69 7.33L383.69 7.33Q383.75 7.03 383.82 6.68L383.82 6.68L383.82 6.68Q383.49 6.94 383.03 7.53L383.03 7.53L383.03 7.53Q382.56 8.11 382.05 8.90L382.05 8.90L382.05 8.90Q381.54 9.69 381.03 10.63L381.03 10.63L381.03 10.63Q380.52 11.58 380.10 12.55L380.10 12.55L380.10 12.55Q379.68 13.52 379.38 14.48L379.38 14.48L379.38 14.48Q379.08 15.43 379.01 16.24L379.01 16.24L379.01 16.24Q378.34 16.04 378.08 15.85L378.08 15.85L378.08 15.85Q377.82 15.65 377.82 15.37L377.82 15.37L377.82 15.37Q377.82 15.12 377.97 14.66L377.97 14.66L377.97 14.66Q378.13 14.20 378.41 13.57L378.41 13.57L378.41 13.57Q378.69 12.94 379.09 12.16L379.09 12.16L379.09 12.16Q379.50 11.38 379.99 10.49L379.99 10.49L379.99 10.49Q380.55 9.46 381.09 8.57L381.09 8.57L381.09 8.57Q381.63 7.67 382.14 6.94L382.14 6.94L382.14 6.94Q382.66 6.22 383.16 5.68L383.16 5.68L383.16 5.68Q383.66 5.15 384.15 4.87L384.15 4.87L384.15 4.87Q384.34 4.87 384.67 4.97L384.67 4.97L384.67 4.97Q385 5.07 385.31 5.21L385.31 5.21L385.31 5.21Q385.63 5.35 385.88 5.49L385.88 5.49L385.88 5.49Q386.12 5.64 386.15 5.74L386.15 5.74L386.15 5.74Q385.95 6.13 385.69 6.92L385.69 6.92L385.69 6.92Q385.42 7.70 385.15 8.69L385.15 8.69L385.15 8.69Q384.87 9.69 384.63 10.80L384.63 10.80L384.63 10.80Q384.38 11.91 384.24 12.94L384.24 12.94L384.24 12.94Q384.57 12.17 384.99 11.33L384.99 11.33L384.99 11.33Q385.42 10.50 385.90 9.68L385.90 9.68L385.90 9.68Q386.37 8.86 386.87 8.09L386.87 8.09L386.87 8.09Q387.37 7.32 387.84 6.69L387.84 6.69L387.84 6.69Q388.32 6.05 388.73 5.57L388.73 5.57L388.73 5.57Q389.14 5.10 389.47 4.87L389.47 4.87L389.47 4.87Q389.66 4.87 389.99 4.97L389.99 4.97L389.99 4.97Q390.32 5.07 390.64 5.21L390.64 5.21L390.64 5.21Q390.95 5.35 391.20 5.49L391.20 5.49L391.20 5.49Q391.44 5.64 391.47 5.74L391.47 5.74L391.47 5.74Q391.02 6.54 390.68 7.69L390.68 7.69L390.68 7.69Q390.35 8.83 390.12 10.09L390.12 10.09L390.12 10.09Q389.89 11.35 389.77 12.59L389.77 12.59L389.77 12.59Q389.65 13.83 389.65 14.81L389.65 14.81L389.65 14.81Q389.65 15.13 389.65 15.48L389.65 15.48L389.65 15.48Q389.65 15.83 389.68 16.21L389.68 16.21L389.68 16.21Q389.48 16.21 389.21 16.16L389.21 16.16L389.21 16.16Q388.93 16.11 388.68 16.03L388.68 16.03L388.68 16.03Q388.42 15.95 388.21 15.84L388.21 15.84L388.21 15.84Q388.00 15.74 387.91 15.61L387.91 15.61L387.91 15.61Q387.90 15.41 387.90 15.20L387.90 15.20L387.90 15.20Q387.90 14.99 387.90 14.80L387.90 14.80L387.90 14.80Q387.90 13.23 388.13 11.52L388.13 11.52L388.13 11.52Q388.36 9.81 388.89 7.83L388.89 7.83L388.89 7.83Q388.95 7.63 389.02 7.29L389.02 7.29L389.02 7.29Q389.09 6.96 389.16 6.59L389.16 6.59L389.16 6.59Q388.77 6.79 388.27 7.34L388.27 7.34L388.27 7.34Q387.77 7.90 387.26 8.69L387.26 8.69L387.26 8.69Q386.75 9.48 386.25 10.44L386.25 10.44L386.25 10.44Q385.76 11.41 385.36 12.41L385.36 12.41L385.36 12.41Q384.96 13.41 384.69 14.40L384.69 14.40L384.69 14.40Q384.41 15.39 384.36 16.21ZM404.42 9.21L404.42 9.21L404.42 9.21Q404.88 9.21 405.14 9.46L405.14 9.46L405.14 9.46Q405.40 9.72 405.40 10.16L405.40 10.16L405.40 10.16Q405.40 10.28 405.38 10.39L405.38 10.39L405.38 10.39Q405.36 10.51 405.33 10.60L405.33 10.60L405.33 10.60Q405.15 10.57 404.92 10.55L404.92 10.55L404.92 10.55Q404.70 10.53 404.39 10.53L404.39 10.53L404.39 10.53Q403.79 10.53 403.17 10.63L403.17 10.63L403.17 10.63Q402.56 10.74 402.00 10.81L402.00 10.81L402.00 10.81Q401.67 11.55 401.41 12.24L401.41 12.24L401.41 12.24Q401.14 12.94 400.95 13.51L400.95 13.51L400.95 13.51Q400.76 14.08 400.66 14.50L400.66 14.50L400.66 14.50Q400.55 14.92 400.54 15.13L400.54 15.13L400.54 15.13Q401.67 14.90 402.83 14.73L402.83 14.73L402.83 14.73Q403.98 14.56 405.26 14.48L405.26 14.48L405.26 14.48Q405.41 14.71 405.52 14.99L405.52 14.99L405.52 14.99Q405.62 15.27 405.62 15.60L405.62 15.60L405.62 15.60Q405.62 15.68 405.62 15.78L405.62 15.78L405.62 15.78Q405.62 15.88 405.59 15.97L405.59 15.97L405.59 15.97Q405.20 15.96 404.77 15.95L404.77 15.95L404.77 15.95Q404.33 15.95 403.63 15.95L403.63 15.95L403.63 15.95Q403.17 15.95 402.76 15.97L402.76 15.97L402.76 15.97Q402.35 15.99 401.93 16.03L401.93 16.03L401.93 16.03Q401.51 16.07 401.04 16.14L401.04 16.14L401.04 16.14Q400.57 16.21 399.98 16.31L399.98 16.31L399.98 16.31Q399.34 16.06 398.73 15.08L398.73 15.08L398.73 15.08Q398.97 14.57 399.40 13.54L399.40 13.54L399.40 13.54Q399.83 12.52 400.48 10.79L400.48 10.79L400.48 10.79Q399.85 10.60 399.66 10.09L399.66 10.09L399.66 10.09Q399.73 10.02 400.06 9.92L400.06 9.92L400.06 9.92Q400.40 9.81 400.89 9.70L400.89 9.70L400.89 9.70Q401.10 9.16 401.25 8.75L401.25 8.75L401.25 8.75Q401.39 8.34 401.51 7.99L401.51 7.99L401.51 7.99Q401.62 7.63 401.71 7.29L401.71 7.29L401.71 7.29Q401.80 6.94 401.88 6.54L401.88 6.54L401.88 6.54Q401.39 6.51 401.11 6.27L401.11 6.27L401.11 6.27Q400.83 6.02 400.83 5.63L400.83 5.63L400.83 5.63Q400.83 5.52 400.87 5.36L400.87 5.36L400.87 5.36Q400.90 5.21 400.95 5.10L400.95 5.10L400.95 5.10Q401.23 5.14 401.49 5.15L401.49 5.15L401.49 5.15Q401.74 5.17 402.16 5.17L402.16 5.17L402.16 5.17Q403.05 5.17 403.82 5.12L403.82 5.12L403.82 5.12Q404.59 5.07 405.21 5.01L405.21 5.01L405.21 5.01Q405.83 4.96 406.28 4.91L406.28 4.91L406.28 4.91Q406.73 4.86 406.97 4.86L406.97 4.86L406.97 4.86Q407.29 4.86 407.54 5.19L407.54 5.19L407.54 5.19Q407.79 5.53 407.92 6.15L407.92 6.15L407.92 6.15Q407.48 6.10 407.21 6.09L407.21 6.09L407.21 6.09Q406.94 6.08 406.73 6.08L406.73 6.08L406.73 6.08Q405.96 6.08 405.32 6.15L405.32 6.15L405.32 6.15Q404.68 6.23 404.10 6.31L404.10 6.31L404.10 6.31Q404.01 6.44 403.91 6.64L403.91 6.64L403.91 6.64Q403.80 6.83 403.63 7.18L403.63 7.18L403.63 7.18Q403.47 7.53 403.22 8.06L403.22 8.06L403.22 8.06Q402.98 8.60 402.63 9.39L402.63 9.39L402.63 9.39Q403.16 9.31 403.63 9.26L403.63 9.26L403.63 9.26Q404.10 9.21 404.42 9.21ZM414.79 16.24L414.79 16.24L414.79 16.24Q414.12 16.04 413.86 15.85L413.86 15.85L413.86 15.85Q413.60 15.65 413.60 15.36L413.60 15.36L413.60 15.36Q413.60 15.13 413.73 14.73L413.73 14.73L413.73 14.73Q413.85 14.32 414.10 13.77L414.10 13.77L414.10 13.77Q414.34 13.22 414.69 12.54L414.69 12.54L414.69 12.54Q415.03 11.87 415.46 11.10L415.46 11.10L415.46 11.10Q415.10 11.09 414.81 11.08L414.81 11.08L414.81 11.08Q414.53 11.07 414.34 11.07L414.34 11.07L414.34 11.07Q414.43 10.86 414.82 10.71L414.82 10.71L414.82 10.71Q415.21 10.56 415.86 10.44L415.86 10.44L415.86 10.44Q416.40 9.53 417.03 8.71L417.03 8.71L417.03 8.71Q417.65 7.88 418.28 7.19L418.28 7.19L418.28 7.19Q418.91 6.50 419.54 5.97L419.54 5.97L419.54 5.97Q420.17 5.45 420.74 5.14L420.74 5.14L420.74 5.14Q420.76 5.04 420.76 4.97L420.76 4.97L420.76 4.97Q420.77 4.90 420.77 4.87L420.77 4.87L420.77 4.87Q420.97 4.87 421.30 4.97L421.30 4.97L421.30 4.97Q421.62 5.07 421.94 5.21L421.94 5.21L421.94 5.21Q422.25 5.35 422.50 5.49L422.50 5.49L422.50 5.49Q422.74 5.64 422.77 5.74L422.77 5.74L422.77 5.74Q422.31 6.55 421.86 8.17L421.86 8.17L421.86 8.17Q421.41 9.79 421.12 12.04L421.12 12.04L421.12 12.04Q421.05 12.60 421.00 13.31L421.00 13.31L421.00 13.31Q420.95 14.03 420.95 14.91L420.95 14.91L420.95 14.91Q420.95 15.22 420.95 15.54L420.95 15.54L420.95 15.54Q420.95 15.86 420.98 16.21L420.98 16.21L420.98 16.21Q420.95 16.23 420.92 16.23L420.92 16.23L420.92 16.23Q420.90 16.23 420.81 16.23L420.81 16.23L420.81 16.23Q420.62 16.23 420.36 16.16L420.36 16.16L420.36 16.16Q420.10 16.10 419.85 16.01L419.85 16.01L419.85 16.01Q419.61 15.92 419.43 15.81L419.43 15.81L419.43 15.81Q419.26 15.69 419.22 15.61L419.22 15.61L419.22 15.61Q419.20 15.43 419.20 15.25L419.20 15.25L419.20 15.25Q419.20 15.08 419.20 14.88L419.20 14.88L419.20 14.88Q419.20 14.01 419.27 13.12L419.27 13.12L419.27 13.12Q419.33 12.22 419.48 11.27L419.48 11.27L419.48 11.27Q419.29 11.26 418.96 11.23L418.96 11.23L418.96 11.23Q418.64 11.21 418.24 11.20L418.24 11.20L418.24 11.20Q417.84 11.19 417.39 11.16L417.39 11.16L417.39 11.16Q416.93 11.14 416.50 11.13L416.50 11.13L416.50 11.13Q416.16 11.76 415.87 12.38L415.87 12.38L415.87 12.38Q415.58 13.01 415.37 13.64L415.37 13.64L415.37 13.64Q415.13 14.31 414.98 14.98L414.98 14.98L414.98 14.98Q414.83 15.65 414.79 16.24ZM420.20 7.83L420.20 7.83L420.20 7.83Q420.25 7.63 420.33 7.29L420.33 7.29L420.33 7.29Q420.41 6.94 420.48 6.57L420.48 6.57L420.48 6.57Q420.13 6.69 419.70 7.03L419.70 7.03L419.70 7.03Q419.27 7.36 418.82 7.86L418.82 7.86L418.82 7.86Q418.36 8.36 417.89 8.98L417.89 8.98L417.89 8.98Q417.42 9.60 416.99 10.30L416.99 10.30L416.99 10.30Q418.17 10.21 419.66 10.18L419.66 10.18L419.66 10.18Q419.78 9.59 419.91 9.01L419.91 9.01L419.91 9.01Q420.04 8.43 420.20 7.83ZM435.36 14.38L435.36 14.38L435.36 14.38Q435.71 14.98 435.71 15.54L435.71 15.54L435.71 15.54Q435.71 15.67 435.69 15.77L435.69 15.77L435.69 15.77Q435.67 15.88 435.64 15.99L435.64 15.99L435.64 15.99Q435.40 15.96 435.14 15.95L435.14 15.95L435.14 15.95Q434.88 15.93 434.60 15.93L434.60 15.93L434.60 15.93Q434.27 15.93 433.92 15.95L433.92 15.95L433.92 15.95Q433.58 15.97 433.16 16.02L433.16 16.02L433.16 16.02Q432.74 16.06 432.22 16.13L432.22 16.13L432.22 16.13Q431.70 16.20 431.02 16.31L431.02 16.31L431.02 16.31Q430.70 16.20 430.37 15.87L430.37 15.87L430.37 15.87Q430.05 15.54 429.77 15.08L429.77 15.08L429.77 15.08Q429.91 14.77 430.12 14.31L430.12 14.31L430.12 14.31Q430.33 13.86 430.61 13.21L430.61 13.21L430.61 13.21Q430.89 12.56 431.24 11.68L431.24 11.68L431.24 11.68Q431.58 10.81 431.97 9.66L431.97 9.66L431.97 9.66Q432.22 8.90 432.40 8.33L432.40 8.33L432.40 8.33Q432.59 7.76 432.73 7.22L432.73 7.22L432.73 7.22Q432.88 6.68 433.02 6.09L433.02 6.09L433.02 6.09Q433.16 5.50 433.33 4.73L433.33 4.73L433.33 4.73Q433.89 4.84 434.30 5.14L434.30 5.14L434.30 5.14Q434.71 5.45 435.09 6.01L435.09 6.01L435.09 6.01Q434.98 6.19 434.80 6.59L434.80 6.59L434.80 6.59Q434.62 7 434.37 7.58L434.37 7.58L434.37 7.58Q434.13 8.16 433.83 8.90L433.83 8.90L433.83 8.90Q433.54 9.63 433.22 10.47L433.22 10.47L433.22 10.47Q432.91 11.30 432.61 12.03L432.61 12.03L432.61 12.03Q432.32 12.75 432.09 13.34L432.09 13.34L432.09 13.34Q431.86 13.93 431.72 14.35L431.72 14.35L431.72 14.35Q431.58 14.77 431.58 14.98L431.58 14.98L431.58 14.98Q431.80 14.97 431.98 14.95L431.98 14.95L431.98 14.95Q432.17 14.94 432.36 14.90L432.36 14.90L432.36 14.90Q432.56 14.87 432.79 14.82L432.79 14.82L432.79 14.82Q433.02 14.77 433.34 14.69L433.34 14.69L433.34 14.69Q433.62 14.62 433.86 14.57L433.86 14.57L433.86 14.57Q434.10 14.52 434.33 14.48L434.33 14.48L434.33 14.48Q434.56 14.45 434.81 14.43L434.81 14.43L434.81 14.43Q435.05 14.41 435.36 14.38ZM455.11 16.24L455.11 16.24L455.11 16.24Q454.44 16.04 454.18 15.85L454.18 15.85L454.18 15.85Q453.92 15.65 453.92 15.36L453.92 15.36L453.92 15.36Q453.92 15.13 454.05 14.73L454.05 14.73L454.05 14.73Q454.17 14.32 454.42 13.77L454.42 13.77L454.42 13.77Q454.66 13.22 455.01 12.54L455.01 12.54L455.01 12.54Q455.35 11.87 455.78 11.10L455.78 11.10L455.78 11.10Q455.42 11.09 455.13 11.08L455.13 11.08L455.13 11.08Q454.85 11.07 454.66 11.07L454.66 11.07L454.66 11.07Q454.75 10.86 455.14 10.71L455.14 10.71L455.14 10.71Q455.53 10.56 456.18 10.44L456.18 10.44L456.18 10.44Q456.72 9.53 457.35 8.71L457.35 8.71L457.35 8.71Q457.97 7.88 458.60 7.19L458.60 7.19L458.60 7.19Q459.23 6.50 459.86 5.97L459.86 5.97L459.86 5.97Q460.49 5.45 461.06 5.14L461.06 5.14L461.06 5.14Q461.08 5.04 461.08 4.97L461.08 4.97L461.08 4.97Q461.09 4.90 461.09 4.87L461.09 4.87L461.09 4.87Q461.29 4.87 461.62 4.97L461.62 4.97L461.62 4.97Q461.94 5.07 462.26 5.21L462.26 5.21L462.26 5.21Q462.57 5.35 462.82 5.49L462.82 5.49L462.82 5.49Q463.06 5.64 463.09 5.74L463.09 5.74L463.09 5.74Q462.63 6.55 462.18 8.17L462.18 8.17L462.18 8.17Q461.73 9.79 461.44 12.04L461.44 12.04L461.44 12.04Q461.37 12.60 461.32 13.31L461.32 13.31L461.32 13.31Q461.27 14.03 461.27 14.91L461.27 14.91L461.27 14.91Q461.27 15.22 461.27 15.54L461.27 15.54L461.27 15.54Q461.27 15.86 461.30 16.21L461.30 16.21L461.30 16.21Q461.27 16.23 461.24 16.23L461.24 16.23L461.24 16.23Q461.22 16.23 461.13 16.23L461.13 16.23L461.13 16.23Q460.94 16.23 460.68 16.16L460.68 16.16L460.68 16.16Q460.42 16.10 460.17 16.01L460.17 16.01L460.17 16.01Q459.93 15.92 459.75 15.81L459.75 15.81L459.75 15.81Q459.58 15.69 459.54 15.61L459.54 15.61L459.54 15.61Q459.52 15.43 459.52 15.25L459.52 15.25L459.52 15.25Q459.52 15.08 459.52 14.88L459.52 14.88L459.52 14.88Q459.52 14.01 459.59 13.12L459.59 13.12L459.59 13.12Q459.65 12.22 459.80 11.27L459.80 11.27L459.80 11.27Q459.61 11.26 459.28 11.23L459.28 11.23L459.28 11.23Q458.96 11.21 458.56 11.20L458.56 11.20L458.56 11.20Q458.16 11.19 457.71 11.16L457.71 11.16L457.71 11.16Q457.25 11.14 456.82 11.13L456.82 11.13L456.82 11.13Q456.48 11.76 456.19 12.38L456.19 12.38L456.19 12.38Q455.90 13.01 455.69 13.64L455.69 13.64L455.69 13.64Q455.45 14.31 455.30 14.98L455.30 14.98L455.30 14.98Q455.15 15.65 455.11 16.24ZM460.52 7.83L460.52 7.83L460.52 7.83Q460.57 7.63 460.65 7.29L460.65 7.29L460.65 7.29Q460.73 6.94 460.80 6.57L460.80 6.57L460.80 6.57Q460.45 6.69 460.02 7.03L460.02 7.03L460.02 7.03Q459.59 7.36 459.14 7.86L459.14 7.86L459.14 7.86Q458.68 8.36 458.21 8.98L458.21 8.98L458.21 8.98Q457.74 9.60 457.31 10.30L457.31 10.30L457.31 10.30Q458.49 10.21 459.98 10.18L459.98 10.18L459.98 10.18Q460.10 9.59 460.23 9.01L460.23 9.01L460.23 9.01Q460.36 8.43 460.52 7.83ZM472.67 6.69L472.67 6.69L472.67 6.69Q472.11 6.69 471.81 6.38L471.81 6.38L471.81 6.38Q471.51 6.06 471.51 5.61L471.51 5.61L471.51 5.61Q471.51 5.50 471.54 5.35L471.54 5.35L471.54 5.35Q471.58 5.19 471.63 5.08L471.63 5.08L471.63 5.08Q471.81 5.17 472.17 5.20L472.17 5.20L472.17 5.20Q472.53 5.24 473.00 5.24L473.00 5.24L473.00 5.24Q473.72 5.24 474.62 5.17L474.62 5.17L474.62 5.17Q475.52 5.11 476.35 5.04L476.35 5.04L476.35 5.04Q477.18 4.97 477.81 4.91L477.81 4.91L477.81 4.91Q478.44 4.84 478.62 4.84L478.62 4.84L478.62 4.84Q479.14 4.84 479.37 5.23L479.37 5.23L479.37 5.23Q479.60 5.61 479.71 6.26L479.71 6.26L479.71 6.26Q479.35 6.23 478.99 6.21L478.99 6.21L478.99 6.21Q478.63 6.19 478.38 6.19L478.38 6.19L478.38 6.19Q477.93 6.19 477.48 6.22L477.48 6.22L477.48 6.22Q477.02 6.24 476.56 6.30L476.56 6.30L476.56 6.30Q476.36 6.71 476.13 7.26L476.13 7.26L476.13 7.26Q475.89 7.81 475.66 8.41L475.66 8.41L475.66 8.41Q475.43 9.02 475.22 9.61L475.22 9.61L475.22 9.61Q475.01 10.21 474.85 10.68L474.85 10.68L474.85 10.68Q474.54 11.61 474.31 12.39L474.31 12.39L474.31 12.39Q474.08 13.17 473.91 13.85L473.91 13.85L473.91 13.85Q473.73 14.53 473.61 15.15L473.61 15.15L473.61 15.15Q473.48 15.76 473.38 16.35L473.38 16.35L473.38 16.35Q472.44 16.21 471.81 15.18L471.81 15.18L471.81 15.18Q471.93 14.74 472.09 14.23L472.09 14.23L472.09 14.23Q472.25 13.72 472.47 13.07L472.47 13.07L472.47 13.07Q472.68 12.42 472.98 11.59L472.98 11.59L472.98 11.59Q473.27 10.77 473.65 9.72L473.65 9.72L473.65 9.72Q473.79 9.32 473.94 8.90L473.94 8.90L473.94 8.90Q474.10 8.47 474.24 8.05L474.24 8.05L474.24 8.05Q474.39 7.63 474.51 7.24L474.51 7.24L474.51 7.24Q474.63 6.85 474.71 6.52L474.71 6.52L474.71 6.52Q474.12 6.59 473.60 6.64L473.60 6.64L473.60 6.64Q473.07 6.69 472.67 6.69ZM496.09 16.24L496.09 16.24L496.09 16.24Q495.42 16.04 495.16 15.85L495.16 15.85L495.16 15.85Q494.90 15.65 494.90 15.36L494.90 15.36L494.90 15.36Q494.90 15.13 495.03 14.73L495.03 14.73L495.03 14.73Q495.15 14.32 495.40 13.77L495.40 13.77L495.40 13.77Q495.64 13.22 495.99 12.54L495.99 12.54L495.99 12.54Q496.33 11.87 496.76 11.10L496.76 11.10L496.76 11.10Q496.40 11.09 496.11 11.08L496.11 11.08L496.11 11.08Q495.82 11.07 495.64 11.07L495.64 11.07L495.64 11.07Q495.73 10.86 496.12 10.71L496.12 10.71L496.12 10.71Q496.51 10.56 497.15 10.44L497.15 10.44L497.15 10.44Q497.70 9.53 498.32 8.71L498.32 8.71L498.32 8.71Q498.95 7.88 499.58 7.19L499.58 7.19L499.58 7.19Q500.21 6.50 500.84 5.97L500.84 5.97L500.84 5.97Q501.47 5.45 502.04 5.14L502.04 5.14L502.04 5.14Q502.05 5.04 502.06 4.97L502.06 4.97L502.06 4.97Q502.07 4.90 502.07 4.87L502.07 4.87L502.07 4.87Q502.26 4.87 502.59 4.97L502.59 4.97L502.59 4.97Q502.92 5.07 503.24 5.21L503.24 5.21L503.24 5.21Q503.55 5.35 503.80 5.49L503.80 5.49L503.80 5.49Q504.04 5.64 504.07 5.74L504.07 5.74L504.07 5.74Q503.61 6.55 503.16 8.17L503.16 8.17L503.16 8.17Q502.71 9.79 502.42 12.04L502.42 12.04L502.42 12.04Q502.35 12.60 502.30 13.31L502.30 13.31L502.30 13.31Q502.25 14.03 502.25 14.91L502.25 14.91L502.25 14.91Q502.25 15.22 502.25 15.54L502.25 15.54L502.25 15.54Q502.25 15.86 502.28 16.21L502.28 16.21L502.28 16.21Q502.25 16.23 502.22 16.23L502.22 16.23L502.22 16.23Q502.19 16.23 502.11 16.23L502.11 16.23L502.11 16.23Q501.91 16.23 501.66 16.16L501.66 16.16L501.66 16.16Q501.40 16.10 501.15 16.01L501.15 16.01L501.15 16.01Q500.91 15.92 500.73 15.81L500.73 15.81L500.73 15.81Q500.56 15.69 500.51 15.61L500.51 15.61L500.51 15.61Q500.50 15.43 500.50 15.25L500.50 15.25L500.50 15.25Q500.50 15.08 500.50 14.88L500.50 14.88L500.50 14.88Q500.50 14.01 500.56 13.12L500.56 13.12L500.56 13.12Q500.63 12.22 500.78 11.27L500.78 11.27L500.78 11.27Q500.58 11.26 500.26 11.23L500.26 11.23L500.26 11.23Q499.94 11.21 499.54 11.20L499.54 11.20L499.54 11.20Q499.14 11.19 498.69 11.16L498.69 11.16L498.69 11.16Q498.23 11.14 497.80 11.13L497.80 11.13L497.80 11.13Q497.46 11.76 497.17 12.38L497.17 12.38L497.17 12.38Q496.87 13.01 496.66 13.64L496.66 13.64L496.66 13.64Q496.43 14.31 496.28 14.98L496.28 14.98L496.28 14.98Q496.13 15.65 496.09 16.24ZM501.49 7.83L501.49 7.83L501.49 7.83Q501.55 7.63 501.63 7.29L501.63 7.29L501.63 7.29Q501.70 6.94 501.77 6.57L501.77 6.57L501.77 6.57Q501.42 6.69 501.00 7.03L501.00 7.03L501.00 7.03Q500.57 7.36 500.12 7.86L500.12 7.86L500.12 7.86Q499.66 8.36 499.19 8.98L499.19 8.98L499.19 8.98Q498.72 9.60 498.29 10.30L498.29 10.30L498.29 10.30Q499.46 10.21 500.96 10.18L500.96 10.18L500.96 10.18Q501.07 9.59 501.21 9.01L501.21 9.01L501.21 9.01Q501.34 8.43 501.49 7.83ZM524.55 6.69L524.55 6.69L524.55 6.69Q523.99 6.69 523.69 6.38L523.69 6.38L523.69 6.38Q523.39 6.06 523.39 5.61L523.39 5.61L523.39 5.61Q523.39 5.50 523.43 5.35L523.43 5.35L523.43 5.35Q523.46 5.19 523.52 5.08L523.52 5.08L523.52 5.08Q523.70 5.17 524.06 5.20L524.06 5.20L524.06 5.20Q524.41 5.24 524.89 5.24L524.89 5.24L524.89 5.24Q525.60 5.24 526.51 5.17L526.51 5.17L526.51 5.17Q527.41 5.11 528.23 5.04L528.23 5.04L528.23 5.04Q529.06 4.97 529.69 4.91L529.69 4.91L529.69 4.91Q530.32 4.84 530.50 4.84L530.50 4.84L530.50 4.84Q531.02 4.84 531.25 5.23L531.25 5.23L531.25 5.23Q531.48 5.61 531.59 6.26L531.59 6.26L531.59 6.26Q531.23 6.23 530.87 6.21L530.87 6.21L530.87 6.21Q530.52 6.19 530.26 6.19L530.26 6.19L530.26 6.19Q529.82 6.19 529.36 6.22L529.36 6.22L529.36 6.22Q528.91 6.24 528.44 6.30L528.44 6.30L528.44 6.30Q528.25 6.71 528.01 7.26L528.01 7.26L528.01 7.26Q527.77 7.81 527.54 8.41L527.54 8.41L527.54 8.41Q527.31 9.02 527.10 9.61L527.10 9.61L527.10 9.61Q526.89 10.21 526.74 10.68L526.74 10.68L526.74 10.68Q526.43 11.61 526.20 12.39L526.20 12.39L526.20 12.39Q525.97 13.17 525.79 13.85L525.79 13.85L525.79 13.85Q525.62 14.53 525.49 15.15L525.49 15.15L525.49 15.15Q525.36 15.76 525.27 16.35L525.27 16.35L525.27 16.35Q524.33 16.21 523.70 15.18L523.70 15.18L523.70 15.18Q523.81 14.74 523.97 14.23L523.97 14.23L523.97 14.23Q524.13 13.72 524.35 13.07L524.35 13.07L524.35 13.07Q524.57 12.42 524.86 11.59L524.86 11.59L524.86 11.59Q525.15 10.77 525.53 9.72L525.53 9.72L525.53 9.72Q525.67 9.32 525.83 8.90L525.83 8.90L525.83 8.90Q525.98 8.47 526.13 8.05L526.13 8.05L526.13 8.05Q526.27 7.63 526.39 7.24L526.39 7.24L526.39 7.24Q526.51 6.85 526.60 6.52L526.60 6.52L526.60 6.52Q526.01 6.59 525.48 6.64L525.48 6.64L525.48 6.64Q524.96 6.69 524.55 6.69ZM537.43 14.38L537.43 14.38L537.43 14.38Q537.43 13.87 537.59 13.07L537.59 13.07L537.59 13.07Q537.75 12.26 538.01 11.33L538.01 11.33L538.01 11.33Q538.27 10.40 538.61 9.43L538.61 9.43L538.61 9.43Q538.94 8.46 539.29 7.60L539.29 7.60L539.29 7.60Q539.64 6.75 539.98 6.10L539.98 6.10L539.98 6.10Q540.32 5.46 540.58 5.18L540.58 5.18L540.58 5.18Q540.72 5.19 540.95 5.29L540.95 5.29L540.95 5.29Q541.18 5.38 541.42 5.50L541.42 5.50L541.42 5.50Q541.66 5.63 541.86 5.78L541.86 5.78L541.86 5.78Q542.05 5.92 542.11 6.05L542.11 6.05L542.11 6.05Q541.70 6.41 541.30 7.15L541.30 7.15L541.30 7.15Q540.90 7.88 540.53 8.82L540.53 8.82L540.53 8.82Q540.16 9.76 539.84 10.80L539.84 10.80L539.84 10.80Q539.52 11.84 539.28 12.82L539.28 12.82L539.28 12.82Q539.04 13.80 538.91 14.64L538.91 14.64L538.91 14.64Q538.78 15.48 538.78 16.00L538.78 16.00L538.78 16.00Q538.78 16.24 538.82 16.30L538.82 16.30L538.82 16.30Q538.51 16.28 538.37 16.19L538.37 16.19L538.37 16.19Q538.23 16.10 538.15 16.00L538.15 16.00L538.15 16.00Q538.08 15.89 538.01 15.79L538.01 15.79L538.01 15.79Q537.95 15.68 537.82 15.62L537.82 15.62L537.82 15.62Q537.73 15.58 537.66 15.43L537.66 15.43L537.66 15.43Q537.59 15.27 537.54 15.09L537.54 15.09L537.54 15.09Q537.49 14.90 537.46 14.70L537.46 14.70L537.46 14.70Q537.43 14.50 537.43 14.38ZM554.20 16.21L554.20 16.21L554.20 16.21Q554.18 16.23 554.15 16.23L554.15 16.23L554.15 16.23Q554.12 16.23 554.04 16.23L554.04 16.23L554.04 16.23Q553.84 16.23 553.58 16.16L553.58 16.16L553.58 16.16Q553.32 16.10 553.08 16.01L553.08 16.01L553.08 16.01Q552.83 15.92 552.66 15.81L552.66 15.81L552.66 15.81Q552.48 15.69 552.44 15.61L552.44 15.61L552.44 15.61Q552.43 15.41 552.43 15.20L552.43 15.20L552.43 15.20Q552.43 14.99 552.43 14.80L552.43 14.80L552.43 14.80Q552.43 13.23 552.66 11.52L552.66 11.52L552.66 11.52Q552.89 9.81 553.42 7.83L553.42 7.83L553.42 7.83Q553.48 7.63 553.54 7.33L553.54 7.33L553.54 7.33Q553.60 7.03 553.67 6.68L553.67 6.68L553.67 6.68Q553.34 6.94 552.87 7.53L552.87 7.53L552.87 7.53Q552.41 8.11 551.90 8.90L551.90 8.90L551.90 8.90Q551.39 9.69 550.88 10.63L550.88 10.63L550.88 10.63Q550.37 11.58 549.95 12.55L549.95 12.55L549.95 12.55Q549.53 13.52 549.23 14.48L549.23 14.48L549.23 14.48Q548.93 15.43 548.86 16.24L548.86 16.24L548.86 16.24Q548.18 16.04 547.93 15.85L547.93 15.85L547.93 15.85Q547.67 15.65 547.67 15.37L547.67 15.37L547.67 15.37Q547.67 15.12 547.82 14.66L547.82 14.66L547.82 14.66Q547.97 14.20 548.25 13.57L548.25 13.57L548.25 13.57Q548.53 12.94 548.94 12.16L548.94 12.16L548.94 12.16Q549.35 11.38 549.84 10.49L549.84 10.49L549.84 10.49Q550.40 9.46 550.94 8.57L550.94 8.57L550.94 8.57Q551.47 7.67 551.99 6.94L551.99 6.94L551.99 6.94Q552.51 6.22 553.01 5.68L553.01 5.68L553.01 5.68Q553.50 5.15 553.99 4.87L553.99 4.87L553.99 4.87Q554.19 4.87 554.52 4.97L554.52 4.97L554.52 4.97Q554.85 5.07 555.16 5.21L555.16 5.21L555.16 5.21Q555.48 5.35 555.72 5.49L555.72 5.49L555.72 5.49Q555.97 5.64 556.00 5.74L556.00 5.74L556.00 5.74Q555.80 6.13 555.53 6.92L555.53 6.92L555.53 6.92Q555.27 7.70 555.00 8.69L555.00 8.69L555.00 8.69Q554.72 9.69 554.48 10.80L554.48 10.80L554.48 10.80Q554.23 11.91 554.09 12.94L554.09 12.94L554.09 12.94Q554.41 12.17 554.84 11.33L554.84 11.33L554.84 11.33Q555.27 10.50 555.74 9.68L555.74 9.68L555.74 9.68Q556.22 8.86 556.72 8.09L556.72 8.09L556.72 8.09Q557.21 7.32 557.69 6.69L557.69 6.69L557.69 6.69Q558.17 6.05 558.58 5.57L558.58 5.57L558.58 5.57Q558.99 5.10 559.31 4.87L559.31 4.87L559.31 4.87Q559.51 4.87 559.84 4.97L559.84 4.97L559.84 4.97Q560.17 5.07 560.48 5.21L560.48 5.21L560.48 5.21Q560.80 5.35 561.04 5.49L561.04 5.49L561.04 5.49Q561.29 5.64 561.32 5.74L561.32 5.74L561.32 5.74Q560.87 6.54 560.53 7.69L560.53 7.69L560.53 7.69Q560.20 8.83 559.97 10.09L559.97 10.09L559.97 10.09Q559.73 11.35 559.62 12.59L559.62 12.59L559.62 12.59Q559.50 13.83 559.50 14.81L559.50 14.81L559.50 14.81Q559.50 15.13 559.50 15.48L559.50 15.48L559.50 15.48Q559.50 15.83 559.52 16.21L559.52 16.21L559.52 16.21Q559.33 16.21 559.06 16.16L559.06 16.16L559.06 16.16Q558.78 16.11 558.52 16.03L558.52 16.03L558.52 16.03Q558.26 15.95 558.05 15.84L558.05 15.84L558.05 15.84Q557.84 15.74 557.76 15.61L557.76 15.61L557.76 15.61Q557.75 15.41 557.75 15.20L557.75 15.20L557.75 15.20Q557.75 14.99 557.75 14.80L557.75 14.80L557.75 14.80Q557.75 13.23 557.98 11.52L557.98 11.52L557.98 11.52Q558.21 9.81 558.74 7.83L558.74 7.83L558.74 7.83Q558.80 7.63 558.87 7.29L558.87 7.29L558.87 7.29Q558.94 6.96 559.01 6.59L559.01 6.59L559.01 6.59Q558.61 6.79 558.12 7.34L558.12 7.34L558.12 7.34Q557.62 7.90 557.11 8.69L557.11 8.69L557.11 8.69Q556.60 9.48 556.10 10.44L556.10 10.44L556.10 10.44Q555.60 11.41 555.21 12.41L555.21 12.41L555.21 12.41Q554.81 13.41 554.53 14.40L554.53 14.40L554.53 14.40Q554.26 15.39 554.20 16.21ZM574.27 9.21L574.27 9.21L574.27 9.21Q574.73 9.21 574.99 9.46L574.99 9.46L574.99 9.46Q575.25 9.72 575.25 10.16L575.25 10.16L575.25 10.16Q575.25 10.28 575.23 10.39L575.23 10.39L575.23 10.39Q575.20 10.51 575.18 10.60L575.18 10.60L575.18 10.60Q574.99 10.57 574.77 10.55L574.77 10.55L574.77 10.55Q574.55 10.53 574.24 10.53L574.24 10.53L574.24 10.53Q573.64 10.53 573.02 10.63L573.02 10.63L573.02 10.63Q572.40 10.74 571.84 10.81L571.84 10.81L571.84 10.81Q571.52 11.55 571.26 12.24L571.26 12.24L571.26 12.24Q570.99 12.94 570.80 13.51L570.80 13.51L570.80 13.51Q570.61 14.08 570.51 14.50L570.51 14.50L570.51 14.50Q570.40 14.92 570.39 15.13L570.39 15.13L570.39 15.13Q571.52 14.90 572.68 14.73L572.68 14.73L572.68 14.73Q573.83 14.56 575.11 14.48L575.11 14.48L575.11 14.48Q575.26 14.71 575.37 14.99L575.37 14.99L575.37 14.99Q575.47 15.27 575.47 15.60L575.47 15.60L575.47 15.60Q575.47 15.68 575.47 15.78L575.47 15.78L575.47 15.78Q575.47 15.88 575.44 15.97L575.44 15.97L575.44 15.97Q575.05 15.96 574.62 15.95L574.62 15.95L574.62 15.95Q574.18 15.95 573.48 15.95L573.48 15.95L573.48 15.95Q573.02 15.95 572.61 15.97L572.61 15.97L572.61 15.97Q572.19 15.99 571.77 16.03L571.77 16.03L571.77 16.03Q571.35 16.07 570.89 16.14L570.89 16.14L570.89 16.14Q570.42 16.21 569.83 16.31L569.83 16.31L569.83 16.31Q569.18 16.06 568.58 15.08L568.58 15.08L568.58 15.08Q568.82 14.57 569.25 13.54L569.25 13.54L569.25 13.54Q569.67 12.52 570.33 10.79L570.33 10.79L570.33 10.79Q569.70 10.60 569.51 10.09L569.51 10.09L569.51 10.09Q569.58 10.02 569.91 9.92L569.91 9.92L569.91 9.92Q570.25 9.81 570.74 9.70L570.74 9.70L570.74 9.70Q570.95 9.16 571.10 8.75L571.10 8.75L571.10 8.75Q571.24 8.34 571.35 7.99L571.35 7.99L571.35 7.99Q571.47 7.63 571.56 7.29L571.56 7.29L571.56 7.29Q571.65 6.94 571.73 6.54L571.73 6.54L571.73 6.54Q571.24 6.51 570.96 6.27L570.96 6.27L570.96 6.27Q570.68 6.02 570.68 5.63L570.68 5.63L570.68 5.63Q570.68 5.52 570.72 5.36L570.72 5.36L570.72 5.36Q570.75 5.21 570.79 5.10L570.79 5.10L570.79 5.10Q571.07 5.14 571.33 5.15L571.33 5.15L571.33 5.15Q571.59 5.17 572.01 5.17L572.01 5.17L572.01 5.17Q572.89 5.17 573.66 5.12L573.66 5.12L573.66 5.12Q574.43 5.07 575.06 5.01L575.06 5.01L575.06 5.01Q575.68 4.96 576.13 4.91L576.13 4.91L576.13 4.91Q576.58 4.86 576.81 4.86L576.81 4.86L576.81 4.86Q577.14 4.86 577.39 5.19L577.39 5.19L577.39 5.19Q577.64 5.53 577.77 6.15L577.77 6.15L577.77 6.15Q577.33 6.10 577.06 6.09L577.06 6.09L577.06 6.09Q576.79 6.08 576.58 6.08L576.58 6.08L576.58 6.08Q575.81 6.08 575.17 6.15L575.17 6.15L575.17 6.15Q574.53 6.23 573.94 6.31L573.94 6.31L573.94 6.31Q573.86 6.44 573.75 6.64L573.75 6.64L573.75 6.64Q573.65 6.83 573.48 7.18L573.48 7.18L573.48 7.18Q573.31 7.53 573.07 8.06L573.07 8.06L573.07 8.06Q572.82 8.60 572.47 9.39L572.47 9.39L572.47 9.39Q573.01 9.31 573.48 9.26L573.48 9.26L573.48 9.26Q573.94 9.21 574.27 9.21Z"></path></g></svg>